%TF.GenerationSoftware,KiCad,Pcbnew,(6.99.0-1031-g46d719ed42)*%
%TF.CreationDate,2022-03-30T16:51:24+01:00*%
%TF.ProjectId,EnAcess PCB,456e4163-6573-4732-9050-43422e6b6963,rev?*%
%TF.SameCoordinates,Original*%
%TF.FileFunction,Soldermask,Top*%
%TF.FilePolarity,Negative*%
%FSLAX46Y46*%
G04 Gerber Fmt 4.6, Leading zero omitted, Abs format (unit mm)*
G04 Created by KiCad (PCBNEW (6.99.0-1031-g46d719ed42)) date 2022-03-30 16:51:24*
%MOMM*%
%LPD*%
G01*
G04 APERTURE LIST*
G04 Aperture macros list*
%AMRoundRect*
0 Rectangle with rounded corners*
0 $1 Rounding radius*
0 $2 $3 $4 $5 $6 $7 $8 $9 X,Y pos of 4 corners*
0 Add a 4 corners polygon primitive as box body*
4,1,4,$2,$3,$4,$5,$6,$7,$8,$9,$2,$3,0*
0 Add four circle primitives for the rounded corners*
1,1,$1+$1,$2,$3*
1,1,$1+$1,$4,$5*
1,1,$1+$1,$6,$7*
1,1,$1+$1,$8,$9*
0 Add four rect primitives between the rounded corners*
20,1,$1+$1,$2,$3,$4,$5,0*
20,1,$1+$1,$4,$5,$6,$7,0*
20,1,$1+$1,$6,$7,$8,$9,0*
20,1,$1+$1,$8,$9,$2,$3,0*%
G04 Aperture macros list end*
%ADD10RoundRect,0.250000X-0.600000X-0.750000X0.600000X-0.750000X0.600000X0.750000X-0.600000X0.750000X0*%
%ADD11O,1.700000X2.000000*%
%ADD12R,1.700000X1.700000*%
%ADD13O,1.700000X1.700000*%
%ADD14C,1.600000*%
%ADD15O,1.600000X1.600000*%
%ADD16R,1.600000X1.600000*%
%ADD17R,1.200000X1.200000*%
%ADD18C,1.200000*%
%ADD19R,2.000000X1.905000*%
%ADD20O,2.000000X1.905000*%
%ADD21R,1.500000X1.500000*%
%ADD22C,1.500000*%
%ADD23R,1.050000X1.500000*%
%ADD24O,1.050000X1.500000*%
%ADD25C,2.340000*%
%ADD26RoundRect,0.250000X0.600000X0.725000X-0.600000X0.725000X-0.600000X-0.725000X0.600000X-0.725000X0*%
%ADD27O,1.700000X1.950000*%
%ADD28C,3.000000*%
%ADD29O,1.500000X1.500000*%
%ADD30R,2.200000X2.200000*%
%ADD31O,2.200000X2.200000*%
%ADD32C,2.000000*%
%ADD33R,1.560000X1.560000*%
%ADD34C,1.560000*%
%ADD35R,1.905000X2.000000*%
%ADD36O,1.905000X2.000000*%
%ADD37C,2.800000*%
%ADD38O,2.800000X2.800000*%
%ADD39R,1.800000X1.800000*%
%ADD40C,1.800000*%
%ADD41C,2.400000*%
%ADD42O,2.400000X2.400000*%
%ADD43RoundRect,0.250000X-0.600000X-0.725000X0.600000X-0.725000X0.600000X0.725000X-0.600000X0.725000X0*%
%ADD44R,2.000000X2.000000*%
%ADD45R,2.400000X2.400000*%
%ADD46O,2.600000X2.600000*%
%ADD47R,2.600000X2.600000*%
G04 APERTURE END LIST*
D10*
%TO.C,J13*%
X87396000Y-48506500D03*
D11*
X89895999Y-48506499D03*
%TD*%
D12*
%TO.C,J12*%
X44957999Y-97545999D03*
D13*
X44957999Y-100085999D03*
X44957999Y-102625999D03*
X44957999Y-105165999D03*
%TD*%
D14*
%TO.C,R38*%
X169164000Y-162560000D03*
D15*
X179323999Y-162559999D03*
%TD*%
D14*
%TO.C,R37*%
X169242000Y-167146000D03*
D15*
X179401999Y-167145999D03*
%TD*%
D14*
%TO.C,C17*%
X190206000Y-162560000D03*
X185206000Y-162560000D03*
%TD*%
D15*
%TO.C,R31*%
X166877999Y-87121999D03*
D14*
X156718000Y-87122000D03*
%TD*%
%TO.C,C15*%
X25908000Y-149352000D03*
X20908000Y-149352000D03*
%TD*%
%TO.C,R24*%
X184150000Y-36576000D03*
D15*
X184149999Y-46735999D03*
%TD*%
D14*
%TO.C,C20*%
X67818000Y-34433000D03*
D16*
X67817999Y-31932999D03*
%TD*%
D17*
%TO.C,C2*%
X136397999Y-54609999D03*
D18*
X136398000Y-56110000D03*
%TD*%
D12*
%TO.C,J6*%
X64002999Y-70616999D03*
D13*
X64002999Y-73156999D03*
X64002999Y-75696999D03*
X64002999Y-78236999D03*
X64002999Y-80776999D03*
X64002999Y-83316999D03*
X64002999Y-85856999D03*
X64002999Y-88396999D03*
X64002999Y-90936999D03*
X64002999Y-93476999D03*
X64002999Y-96016999D03*
X64002999Y-98556999D03*
X64002999Y-101096999D03*
X64002999Y-103636999D03*
X64002999Y-106176999D03*
X64002999Y-108716999D03*
X64002999Y-111256999D03*
X64002999Y-113796999D03*
X64002999Y-116336999D03*
X64002999Y-118876999D03*
%TD*%
D16*
%TO.C,C26*%
X160527999Y-120903999D03*
D14*
X158028000Y-120904000D03*
%TD*%
%TO.C,R5*%
X141478000Y-22352000D03*
D15*
X141477999Y-32511999D03*
%TD*%
D14*
%TO.C,C8*%
X60198000Y-31933000D03*
X60198000Y-36933000D03*
%TD*%
%TO.C,TH1*%
X171958000Y-38100000D03*
X171958000Y-43100000D03*
%TD*%
D19*
%TO.C,Q3*%
X131317999Y-122681999D03*
D20*
X131317999Y-120141999D03*
X131317999Y-117601999D03*
%TD*%
D14*
%TO.C,R16*%
X140462000Y-52070000D03*
D15*
X140461999Y-62229999D03*
%TD*%
D14*
%TO.C,R11*%
X109728000Y-116332000D03*
D15*
X99567999Y-116331999D03*
%TD*%
D14*
%TO.C,R17*%
X66802000Y-50800000D03*
D15*
X66801999Y-40639999D03*
%TD*%
D21*
%TO.C,U6*%
X173989999Y-143869999D03*
D22*
X176530000Y-143870000D03*
X179070000Y-143870000D03*
%TD*%
D14*
%TO.C,C27*%
X117094000Y-164338000D03*
X112094000Y-164338000D03*
%TD*%
D12*
%TO.C,J1*%
X108965999Y-87375999D03*
D13*
X108965999Y-89915999D03*
X108965999Y-92455999D03*
X108965999Y-94995999D03*
%TD*%
D16*
%TO.C,D12*%
X128015999Y-86105999D03*
D15*
X120395999Y-86105999D03*
%TD*%
D23*
%TO.C,Q2*%
X88137999Y-118871999D03*
D24*
X89407999Y-118871999D03*
X90677999Y-118871999D03*
%TD*%
D14*
%TO.C,R23*%
X182118000Y-85852000D03*
D15*
X182117999Y-75691999D03*
%TD*%
D14*
%TO.C,R34*%
X118872000Y-89408000D03*
D15*
X129031999Y-89407999D03*
%TD*%
D25*
%TO.C,RV2*%
X23448000Y-51672000D03*
X33448000Y-49172000D03*
X23448000Y-46672000D03*
%TD*%
D16*
%TO.C,C5*%
X25907999Y-71881999D03*
D14*
X23408000Y-71882000D03*
%TD*%
D26*
%TO.C,J2*%
X51308000Y-57919500D03*
D27*
X48807999Y-57919499D03*
X46307999Y-57919499D03*
X43807999Y-57919499D03*
X41307999Y-57919499D03*
X38807999Y-57919499D03*
X36307999Y-57919499D03*
X33807999Y-57919499D03*
X31307999Y-57919499D03*
X28807999Y-57919499D03*
X26307999Y-57919499D03*
X23807999Y-57919499D03*
%TD*%
D28*
%TO.C,TR1*%
X159512000Y-138684000D03*
X159512000Y-143684000D03*
X159512000Y-148684000D03*
X159512000Y-153684000D03*
X159512000Y-158684000D03*
X139512000Y-158684000D03*
X139512000Y-153684000D03*
X139512000Y-148684000D03*
X139512000Y-143684000D03*
X139512000Y-138684000D03*
%TD*%
D14*
%TO.C,C12*%
X151638000Y-31242000D03*
X146638000Y-31242000D03*
%TD*%
%TO.C,R27*%
X156718000Y-70612000D03*
D15*
X166877999Y-70611999D03*
%TD*%
D21*
%TO.C,D4*%
X169671999Y-33278999D03*
D29*
X169671999Y-25658999D03*
%TD*%
D16*
%TO.C,C31*%
X138240887Y-71627999D03*
D14*
X140740888Y-71628000D03*
%TD*%
D17*
%TO.C,C21*%
X32257999Y-38861999D03*
D18*
X32258000Y-37362000D03*
%TD*%
D16*
%TO.C,C4*%
X95757999Y-31932999D03*
D14*
X95758000Y-34433000D03*
%TD*%
%TO.C,C23*%
X175848000Y-92202000D03*
X180848000Y-92202000D03*
%TD*%
%TO.C,R19*%
X180594000Y-36576000D03*
D15*
X180593999Y-46735999D03*
%TD*%
D30*
%TO.C,D14*%
X176783999Y-126237999D03*
D31*
X166623999Y-126237999D03*
%TD*%
D30*
%TO.C,D16*%
X108965999Y-143509999D03*
D31*
X119125999Y-143509999D03*
%TD*%
D14*
%TO.C,R36*%
X190246000Y-132588000D03*
D15*
X180085999Y-132587999D03*
%TD*%
D17*
%TO.C,C29*%
X161797999Y-26161999D03*
D18*
X161798000Y-27662000D03*
%TD*%
D10*
%TO.C,J8*%
X119928000Y-26162000D03*
D11*
X122427999Y-26161999D03*
%TD*%
D32*
%TO.C,C10*%
X165060000Y-41148000D03*
X157560000Y-41148000D03*
%TD*%
D14*
%TO.C,R28*%
X171958000Y-101092000D03*
D15*
X182117999Y-101091999D03*
%TD*%
D21*
%TO.C,D2*%
X75432999Y-24312999D03*
D29*
X83052999Y-24312999D03*
%TD*%
D21*
%TO.C,D7*%
X136397999Y-24891999D03*
D29*
X128777999Y-24891999D03*
%TD*%
D14*
%TO.C,R33*%
X183896000Y-146050000D03*
D15*
X183895999Y-135889999D03*
%TD*%
D33*
%TO.C,RV1*%
X146857999Y-27391999D03*
D34*
X151858000Y-24892000D03*
X146858000Y-22392000D03*
%TD*%
D30*
%TO.C,D13*%
X182371999Y-104647999D03*
D31*
X172211999Y-104647999D03*
%TD*%
D10*
%TO.C,J10*%
X120416000Y-60952500D03*
D11*
X122915999Y-60952499D03*
%TD*%
D16*
%TO.C,UC3843*%
X159267999Y-92211999D03*
D15*
X159267999Y-94751999D03*
X159267999Y-97291999D03*
X159267999Y-99831999D03*
X166887999Y-99831999D03*
X166887999Y-97291999D03*
X166887999Y-94751999D03*
X166887999Y-92211999D03*
%TD*%
D21*
%TO.C,D3*%
X130555999Y-53085999D03*
D29*
X130555999Y-60705999D03*
%TD*%
D14*
%TO.C,R1*%
X79248000Y-125222000D03*
D15*
X89407999Y-125221999D03*
%TD*%
D14*
%TO.C,C11*%
X48260000Y-113792000D03*
X48260000Y-118792000D03*
%TD*%
%TO.C,R8*%
X119888000Y-30734000D03*
D15*
X119887999Y-40893999D03*
%TD*%
D14*
%TO.C,R29*%
X171958000Y-97282000D03*
D15*
X182117999Y-97281999D03*
%TD*%
D14*
%TO.C,R20*%
X119380000Y-158242000D03*
D15*
X109219999Y-158241999D03*
%TD*%
D14*
%TO.C,R9*%
X166116000Y-23876000D03*
D15*
X166115999Y-34035999D03*
%TD*%
D35*
%TO.C,Q1*%
X102107999Y-122681999D03*
D36*
X104647999Y-122681999D03*
X107187999Y-122681999D03*
%TD*%
D10*
%TO.C,J7*%
X114828000Y-116324500D03*
D11*
X117327999Y-116324499D03*
%TD*%
D37*
%TO.C,R18*%
X189230000Y-46736000D03*
D38*
X189229999Y-67055999D03*
%TD*%
D39*
%TO.C,D1*%
X61467999Y-24891999D03*
D40*
X58928000Y-24892000D03*
%TD*%
D14*
%TO.C,R6*%
X116586000Y-51562000D03*
D15*
X126745999Y-51561999D03*
%TD*%
D14*
%TO.C,R3*%
X46228000Y-27432000D03*
D15*
X56387999Y-27431999D03*
%TD*%
D16*
%TO.C,C3*%
X23367999Y-143001999D03*
D14*
X23368000Y-140502000D03*
%TD*%
D21*
%TO.C,D9*%
X128772999Y-28701999D03*
D29*
X136392999Y-28701999D03*
%TD*%
D12*
%TO.C,J11*%
X133857999Y-83057999D03*
D13*
X133857999Y-85597999D03*
X133857999Y-88137999D03*
X133857999Y-90677999D03*
X133857999Y-93217999D03*
X133857999Y-95757999D03*
X133857999Y-98297999D03*
%TD*%
D14*
%TO.C,C22*%
X155234000Y-109220000D03*
X160234000Y-109220000D03*
%TD*%
D41*
%TO.C,R30*%
X149098000Y-79502000D03*
D42*
X174497999Y-79501999D03*
%TD*%
D30*
%TO.C,D17*%
X182117999Y-113283999D03*
D31*
X182117999Y-123443999D03*
%TD*%
D14*
%TO.C,R4*%
X41656000Y-128016000D03*
D15*
X51815999Y-128015999D03*
%TD*%
D16*
%TO.C,U4*%
X180329999Y-138434999D03*
D15*
X180329999Y-135894999D03*
X172709999Y-135894999D03*
X172709999Y-138434999D03*
%TD*%
D35*
%TO.C,U5*%
X41147999Y-33456999D03*
D36*
X43687999Y-33456999D03*
X46227999Y-33456999D03*
%TD*%
D14*
%TO.C,R15*%
X117602000Y-68834000D03*
D15*
X127761999Y-68833999D03*
%TD*%
D14*
%TO.C,R32*%
X153924000Y-105156000D03*
D15*
X164083999Y-105155999D03*
%TD*%
D21*
%TO.C,D10*%
X136392999Y-21081999D03*
D29*
X128772999Y-21081999D03*
%TD*%
D14*
%TO.C,R14*%
X38608000Y-43942000D03*
D15*
X48767999Y-43941999D03*
%TD*%
D14*
%TO.C,C24*%
X146598000Y-93472000D03*
X151598000Y-93472000D03*
%TD*%
D30*
%TO.C,D15*%
X108965999Y-147827999D03*
D31*
X119125999Y-147827999D03*
%TD*%
D14*
%TO.C,C25*%
X171998000Y-87122000D03*
X176998000Y-87122000D03*
%TD*%
%TO.C,R25*%
X166878000Y-117602000D03*
D15*
X177037999Y-117601999D03*
%TD*%
D43*
%TO.C,J9*%
X73192000Y-44404000D03*
D27*
X75691999Y-44403999D03*
X78191999Y-44403999D03*
%TD*%
D14*
%TO.C,R12*%
X117602000Y-65278000D03*
D15*
X127761999Y-65277999D03*
%TD*%
D16*
%TO.C,C30*%
X178561999Y-60045676D03*
D14*
X178562000Y-57545677D03*
%TD*%
D16*
%TO.C,U3*%
X100847999Y-109976999D03*
D15*
X100847999Y-112516999D03*
X108467999Y-112516999D03*
X108467999Y-109976999D03*
%TD*%
D14*
%TO.C,R26*%
X177038000Y-121412000D03*
D15*
X166877999Y-121411999D03*
%TD*%
D17*
%TO.C,C19*%
X32257999Y-31241999D03*
D18*
X32258000Y-32742000D03*
%TD*%
D35*
%TO.C,U2*%
X76707999Y-32186999D03*
D36*
X79247999Y-32186999D03*
X81787999Y-32186999D03*
%TD*%
D21*
%TO.C,D6*%
X103377999Y-30657999D03*
D29*
X103377999Y-38277999D03*
%TD*%
D13*
%TO.C,J4*%
X32003999Y-138175999D03*
X34543999Y-138175999D03*
X32003999Y-140715999D03*
X34543999Y-140715999D03*
X32003999Y-143255999D03*
X34543999Y-143255999D03*
X32003999Y-145795999D03*
X34543999Y-145795999D03*
X32003999Y-148335999D03*
X34543999Y-148335999D03*
X32003999Y-150875999D03*
X34543999Y-150875999D03*
X32003999Y-153415999D03*
X34543999Y-153415999D03*
X32003999Y-155955999D03*
X34543999Y-155955999D03*
X32003999Y-158495999D03*
X34543999Y-158495999D03*
X32003999Y-161035999D03*
D12*
X34543999Y-161035999D03*
%TD*%
D21*
%TO.C,D5*%
X128767999Y-32511999D03*
D29*
X136387999Y-32511999D03*
%TD*%
D16*
%TO.C,C6*%
X55625999Y-113944322D03*
D14*
X55626000Y-116444323D03*
%TD*%
D44*
%TO.C,D11*%
X155610499Y-49039499D03*
D32*
X160610500Y-49039500D03*
X165610500Y-49039500D03*
X170610500Y-49039500D03*
%TD*%
D21*
%TO.C,D8*%
X156717999Y-23621999D03*
D29*
X156717999Y-31241999D03*
%TD*%
D14*
%TO.C,C14*%
X88138000Y-31933000D03*
X88138000Y-36933000D03*
%TD*%
%TO.C,C18*%
X148884000Y-99822000D03*
X153884000Y-99822000D03*
%TD*%
D12*
%TO.C,J3*%
X90677999Y-80771999D03*
D13*
X90677999Y-83311999D03*
X90677999Y-85851999D03*
X90677999Y-88391999D03*
X90677999Y-90931999D03*
X90677999Y-93471999D03*
X90677999Y-96011999D03*
X90677999Y-98551999D03*
%TD*%
D16*
%TO.C,D18*%
X120141999Y-82295999D03*
D15*
X127761999Y-82295999D03*
%TD*%
D14*
%TO.C,R35*%
X118872000Y-92964000D03*
D15*
X129031999Y-92963999D03*
%TD*%
D14*
%TO.C,C13*%
X32258000Y-74382000D03*
X32258000Y-69382000D03*
%TD*%
D45*
%TO.C,C9*%
X152399999Y-64455266D03*
D41*
X152400000Y-56955267D03*
%TD*%
D14*
%TO.C,R2*%
X48768000Y-51562000D03*
D15*
X58927999Y-51561999D03*
%TD*%
D14*
%TO.C,R13*%
X38608000Y-38862000D03*
D15*
X48767999Y-38861999D03*
%TD*%
D14*
%TO.C,C7*%
X187452000Y-144232000D03*
X187452000Y-139232000D03*
%TD*%
%TO.C,C16*%
X146638000Y-87122000D03*
X151638000Y-87122000D03*
%TD*%
%TO.C,R21*%
X119380000Y-154178000D03*
D15*
X109219999Y-154177999D03*
%TD*%
D44*
%TO.C,BZ1*%
X91947999Y-104911999D03*
D32*
X91948000Y-112512000D03*
%TD*%
D14*
%TO.C,R22*%
X175514000Y-71120000D03*
D15*
X185673999Y-71119999D03*
%TD*%
D14*
%TO.C,C1*%
X120142000Y-72644000D03*
X125142000Y-72644000D03*
%TD*%
%TO.C,R10*%
X151638000Y-36322000D03*
D15*
X141477999Y-36321999D03*
%TD*%
D14*
%TO.C,R7*%
X123698000Y-31242000D03*
D15*
X123697999Y-41401999D03*
%TD*%
D46*
%TO.C,D19*%
X168909999Y-155193999D03*
D47*
X184149999Y-155193999D03*
%TD*%
D16*
%TO.C,C28*%
X167131999Y-60299676D03*
D14*
X167132000Y-57799677D03*
%TD*%
D12*
%TO.C,J5*%
X79242999Y-70616999D03*
D13*
X79242999Y-73156999D03*
X79242999Y-75696999D03*
X79242999Y-78236999D03*
X79242999Y-80776999D03*
X79242999Y-83316999D03*
X79242999Y-85856999D03*
X79242999Y-88396999D03*
X79242999Y-90936999D03*
X79242999Y-93476999D03*
X79242999Y-96016999D03*
X79242999Y-98556999D03*
X79242999Y-101096999D03*
X79242999Y-103636999D03*
X79242999Y-106176999D03*
X79242999Y-108716999D03*
X79242999Y-111256999D03*
X79242999Y-113796999D03*
X79242999Y-116336999D03*
X79242999Y-118876999D03*
%TD*%
M02*
