M48
; DRILL file {KiCad (6.99.0-1031-g46d719ed42)} date Wednesday, March 30, 2022 at 04:51:29 PM
; FORMAT={-:-/ absolute / inch / decimal}
; #@! TF.CreationDate,2022-03-30T16:51:29+01:00
; #@! TF.GenerationSoftware,Kicad,Pcbnew,(6.99.0-1031-g46d719ed42)
; #@! TF.FileFunction,Plated,1,2,PTH
FMAT,2
INCH
; #@! TA.AperFunction,Plated,PTH,ViaDrill
T1C0.0157
; #@! TA.AperFunction,Plated,PTH,ComponentDrill
T2C0.0236
; #@! TA.AperFunction,Plated,PTH,ComponentDrill
T3C0.0295
; #@! TA.AperFunction,Plated,PTH,ComponentDrill
T4C0.0315
; #@! TA.AperFunction,Plated,PTH,ComponentDrill
T5C0.0354
; #@! TA.AperFunction,Plated,PTH,ComponentDrill
T6C0.0374
; #@! TA.AperFunction,Plated,PTH,ComponentDrill
T7C0.0394
; #@! TA.AperFunction,Plated,PTH,ComponentDrill
T8C0.0433
; #@! TA.AperFunction,Plated,PTH,ComponentDrill
T9C0.0472
; #@! TA.AperFunction,Plated,PTH,ComponentDrill
T10C0.0512
; #@! TA.AperFunction,Plated,PTH,ComponentDrill
T11C0.0551
; #@! TA.AperFunction,Plated,PTH,ComponentDrill
T12C0.0591
%
G90
G05
T1
X1.39Y-3.22
X1.42Y-3.12
X1.51Y-4.54
X1.52Y-4.73
X2.47Y-5.13
X2.52Y-6.03
X2.57Y-5.33
X2.61Y-2.3
X2.63Y-2.18
X2.77Y-0.73
X2.77Y-0.98
X2.77Y-5.83
X2.94Y-2.3
X2.95Y-2.18
X3.02Y-5.33
X3.12Y-5.13
X4.13Y-4.15
X4.14Y-3.92
X4.24Y-2.21
X4.25Y-2.51
X4.27Y-1.83
X4.67Y-1.83
X5.4Y-3.26
X5.61Y-3.26
X5.76Y-1.71
X5.76Y-2.07
T2
X1.27Y-1.23
X1.27Y-1.2891
X1.27Y-1.4709
X1.27Y-1.53
X5.37Y-2.15
X5.37Y-2.2091
X6.37Y-1.03
X6.37Y-1.0891
T3
X2.9698Y-0.9572
X3.2698Y-0.9572
X3.47Y-4.68
X3.52Y-4.68
X3.57Y-4.68
X4.07Y-1.207
X4.07Y-1.507
X5.0696Y-1.28
X5.0698Y-0.83
X5.0698Y-1.13
X5.07Y-0.98
X5.14Y-2.09
X5.14Y-2.39
X5.3696Y-1.28
X5.3698Y-0.83
X5.3698Y-1.13
X5.37Y-0.98
X6.17Y-0.93
X6.17Y-1.23
X6.68Y-1.0102
X6.68Y-1.3102
T4
X0.8231Y-5.88
X0.92Y-5.5316
X0.92Y-5.63
X0.9216Y-2.83
X1.02Y-2.83
X1.02Y-5.88
X1.27Y-2.7316
X1.27Y-2.9284
X1.52Y-1.53
X1.52Y-1.73
X1.64Y-5.04
X1.82Y-1.08
X1.9Y-4.48
X1.9Y-4.6769
X1.92Y-1.53
X1.92Y-1.73
X1.92Y-2.03
X2.04Y-5.04
X2.19Y-4.486
X2.19Y-4.5844
X2.22Y-1.08
X2.32Y-2.03
X2.37Y-1.2572
X2.37Y-1.4541
X2.63Y-1.6
X2.63Y-2.0
X2.67Y-1.2572
X2.67Y-1.3556
X3.12Y-4.93
X3.47Y-1.2572
X3.47Y-1.4541
X3.52Y-4.93
X3.77Y-1.2572
X3.77Y-1.3556
X3.92Y-4.58
X3.9704Y-4.3298
X3.9704Y-4.4298
X4.2704Y-4.3298
X4.2704Y-4.4298
X4.3Y-6.07
X4.3Y-6.23
X4.32Y-4.58
X4.4131Y-6.47
X4.59Y-2.03
X4.61Y-6.47
X4.63Y-2.57
X4.63Y-2.71
X4.68Y-3.52
X4.68Y-3.66
X4.7Y-6.07
X4.7Y-6.23
X4.72Y-1.21
X4.72Y-1.61
X4.73Y-2.86
X4.73Y-3.24
X4.74Y-3.39
X4.87Y-1.23
X4.87Y-1.63
X4.9269Y-2.86
X4.99Y-2.03
X5.03Y-2.57
X5.03Y-2.71
X5.03Y-3.24
X5.04Y-3.39
X5.08Y-3.52
X5.08Y-3.66
X5.4426Y-2.82
X5.53Y-2.05
X5.53Y-2.45
X5.541Y-2.82
X5.57Y-0.88
X5.57Y-1.28
X5.57Y-1.43
X5.7716Y-3.68
X5.7731Y-1.23
X5.7731Y-3.43
X5.8616Y-3.93
X5.9684Y-3.68
X5.97Y-1.23
X5.97Y-1.43
X5.97Y-3.43
X6.0584Y-3.93
X6.06Y-4.14
X6.1116Y-4.3
X6.17Y-2.78
X6.17Y-3.43
X6.2216Y-4.76
X6.2704Y-3.6304
X6.2704Y-3.7304
X6.2704Y-3.8304
X6.2704Y-3.9304
X6.3084Y-4.3
X6.32Y-4.76
X6.46Y-4.14
X6.54Y-0.94
X6.54Y-1.34
X6.57Y-2.78
X6.57Y-3.43
X6.57Y-4.63
X6.57Y-4.78
X6.5704Y-3.6304
X6.5704Y-3.7304
X6.5704Y-3.8304
X6.5704Y-3.9304
X6.58Y-2.2756
X6.58Y-2.374
X6.66Y-6.4
X6.6631Y-6.5806
X6.77Y-1.5
X6.77Y-1.6969
X6.77Y-3.83
X6.77Y-3.98
X6.7716Y-3.43
X6.7996Y-5.3502
X6.7996Y-5.4502
X6.85Y-5.6642
X6.91Y-2.8
X6.9231Y-3.63
X6.95Y-5.6642
X6.9684Y-3.43
X6.97Y-4.63
X6.97Y-4.78
X7.03Y-2.2656
X7.03Y-2.364
X7.05Y-5.6642
X7.06Y-6.4
X7.0631Y-6.5806
X7.09Y-5.22
X7.0996Y-5.3502
X7.0996Y-5.4502
X7.11Y-1.44
X7.11Y-1.84
X7.12Y-3.63
X7.17Y-2.98
X7.17Y-3.38
X7.17Y-3.83
X7.17Y-3.98
X7.24Y-5.35
X7.24Y-5.75
X7.25Y-1.44
X7.25Y-1.84
X7.2916Y-6.4
X7.31Y-2.8
X7.38Y-5.4816
X7.38Y-5.6784
X7.4884Y-6.4
X7.49Y-5.22
T5
X2.32Y-0.98
X2.42Y-0.98
T6
X0.9373Y-2.2803
X1.0357Y-2.2803
X1.1342Y-2.2803
X1.2326Y-2.2803
X1.331Y-2.2803
X1.4294Y-2.2803
X1.5279Y-2.2803
X1.6263Y-2.2803
X1.7247Y-2.2803
X1.8231Y-2.2803
X1.9216Y-2.2803
X2.02Y-2.2803
X2.8816Y-1.7482
X2.98Y-1.7482
X3.0784Y-1.7482
T7
X1.26Y-5.44
X1.26Y-5.54
X1.26Y-5.64
X1.26Y-5.74
X1.26Y-5.84
X1.26Y-5.94
X1.26Y-6.04
X1.26Y-6.14
X1.26Y-6.24
X1.26Y-6.34
X1.36Y-5.44
X1.36Y-5.54
X1.36Y-5.64
X1.36Y-5.74
X1.36Y-5.84
X1.36Y-5.94
X1.36Y-6.04
X1.36Y-6.14
X1.36Y-6.24
X1.36Y-6.34
X1.77Y-3.8404
X1.77Y-3.9404
X1.77Y-4.0404
X1.77Y-4.1404
X2.5198Y-2.7802
X2.5198Y-2.8802
X2.5198Y-2.9802
X2.5198Y-3.0802
X2.5198Y-3.1802
X2.5198Y-3.2802
X2.5198Y-3.3802
X2.5198Y-3.4802
X2.5198Y-3.5802
X2.5198Y-3.6802
X2.5198Y-3.7802
X2.5198Y-3.8802
X2.5198Y-3.9802
X2.5198Y-4.0802
X2.5198Y-4.1802
X2.5198Y-4.2802
X2.5198Y-4.3802
X2.5198Y-4.4802
X2.5198Y-4.5802
X2.5198Y-4.6802
X3.1198Y-2.7802
X3.1198Y-2.8802
X3.1198Y-2.9802
X3.1198Y-3.0802
X3.1198Y-3.1802
X3.1198Y-3.2802
X3.1198Y-3.3802
X3.1198Y-3.4802
X3.1198Y-3.5802
X3.1198Y-3.6802
X3.1198Y-3.7802
X3.1198Y-3.8802
X3.1198Y-3.9802
X3.1198Y-4.0802
X3.1198Y-4.1802
X3.1198Y-4.2802
X3.1198Y-4.3802
X3.1198Y-4.4802
X3.1198Y-4.5802
X3.1198Y-4.6802
X3.4408Y-1.9097
X3.5392Y-1.9097
X3.57Y-3.18
X3.57Y-3.28
X3.57Y-3.38
X3.57Y-3.48
X3.57Y-3.58
X3.57Y-3.68
X3.57Y-3.78
X3.57Y-3.88
X3.62Y-4.1304
X3.62Y-4.4296
X4.29Y-3.44
X4.29Y-3.54
X4.29Y-3.64
X4.29Y-3.74
X4.5208Y-4.5797
X4.6192Y-4.5797
X4.7216Y-1.03
X4.7408Y-2.3997
X4.82Y-1.03
X4.8392Y-2.3997
X5.27Y-3.27
X5.27Y-3.37
X5.27Y-3.47
X5.27Y-3.57
X5.27Y-3.67
X5.27Y-3.77
X5.27Y-3.87
X5.7818Y-0.8816
X5.7818Y-1.0784
X5.9787Y-0.98
X6.1264Y-1.9307
X6.2031Y-1.62
X6.3232Y-1.9307
X6.4984Y-1.62
X6.5201Y-1.9307
X6.7169Y-1.9307
T8
X1.62Y-1.3172
X1.72Y-1.3172
X1.82Y-1.3172
X3.02Y-1.2672
X3.12Y-1.2672
X3.22Y-1.2672
X4.02Y-4.83
X4.12Y-4.83
X4.22Y-4.83
X4.29Y-5.65
X4.29Y-5.82
X4.69Y-5.65
X4.69Y-5.82
X5.17Y-4.63
X5.17Y-4.73
X5.17Y-4.83
X6.56Y-4.97
X6.78Y-4.12
X6.96Y-4.97
X7.17Y-4.46
X7.17Y-4.86
X7.18Y-4.12
T9
X5.87Y-3.13
X6.0Y-2.2423
X6.0Y-2.5376
X6.87Y-3.13
T10
X0.9231Y-1.8375
X0.9231Y-2.0343
X1.3169Y-1.9359
X6.65Y-6.11
X7.25Y-6.11
T11
X7.45Y-1.84
X7.45Y-2.64
T12
X5.4926Y-5.46
X5.4926Y-5.6569
X5.4926Y-5.8537
X5.4926Y-6.0506
X5.4926Y-6.2474
X6.28Y-5.46
X6.28Y-5.6569
X6.28Y-5.8537
X6.28Y-6.0506
X6.28Y-6.2474
T0
M30
