M48
; DRILL file {KiCad 7.0.1-0} date 2023 March 17, Friday 10:33:18
; FORMAT={-:-/ absolute / metric / decimal}
; #@! TF.CreationDate,2023-03-17T10:33:18+01:00
; #@! TF.GenerationSoftware,Kicad,Pcbnew,7.0.1-0
; #@! TF.FileFunction,Plated,1,2,PTH
FMAT,2
METRIC
; #@! TA.AperFunction,Plated,PTH,ComponentDrill
T1C0.100
; #@! TA.AperFunction,Plated,PTH,ViaDrill
T2C0.400
; #@! TA.AperFunction,Plated,PTH,ComponentDrill
T3C0.600
; #@! TA.AperFunction,Plated,PTH,ComponentDrill
T4C0.750
; #@! TA.AperFunction,Plated,PTH,ComponentDrill
T5C0.800
; #@! TA.AperFunction,Plated,PTH,ComponentDrill
T6C0.900
; #@! TA.AperFunction,Plated,PTH,ComponentDrill
T7C0.950
; #@! TA.AperFunction,Plated,PTH,ComponentDrill
T8C1.000
; #@! TA.AperFunction,Plated,PTH,ComponentDrill
T9C1.100
; #@! TA.AperFunction,Plated,PTH,ComponentDrill
T10C1.200
; #@! TA.AperFunction,Plated,PTH,ComponentDrill
T11C1.300
; #@! TA.AperFunction,Plated,PTH,ComponentDrill
T12C1.400
; #@! TA.AperFunction,Plated,PTH,ComponentDrill
T13C1.500
; #@! TA.AperFunction,Plated,PTH,ComponentDrill
T14C3.200
%
G90
G05
T1
X138.933Y-109.831
X143.933Y-109.831
X148.933Y-109.831
T2
X39.6Y-77.597
X41.0Y-69.083
X54.077Y-111.1
X55.169Y-105.994
X64.77Y-98.781
X64.846Y-96.291
X69.342Y-52.324
X71.0Y-117.0
X71.679Y-112.827
X74.549Y-114.376
X79.4Y-59.8
X86.614Y-62.484
X86.614Y-63.983
X87.8Y-49.0
X92.456Y-56.642
X94.234Y-62.484
X94.234Y-64.008
X95.6Y-66.4
X99.8Y-65.0
X120.421Y-79.68
X122.417Y-30.847
X122.936Y-32.817
X124.79Y-79.68
X126.409Y-33.14
X126.822Y-30.683
X128.219Y-34.798
X131.26Y-16.473
X131.26Y-18.288
X132.385Y-25.476
X133.287Y-21.336
X133.655Y-30.346
X134.493Y-29.515
X135.636Y-21.336
X138.049Y-23.241
X145.212Y-69.952
X150.52Y-96.495
X151.765Y-67.488
X156.108Y-96.495
T3
X79.248Y-90.2
X79.248Y-93.8
X119.912Y-26.162
X121.412Y-26.162
X154.178Y-21.082
T4
X42.38Y-47.0
X50.0Y-47.0
X75.189Y-19.812
X75.433Y-24.313
X82.809Y-19.812
X83.053Y-24.313
X88.395Y-27.0
X96.015Y-27.0
X103.378Y-30.658
X103.378Y-38.278
T5
X20.538Y-64.389
X23.038Y-64.389
X29.591Y-62.143
X29.591Y-67.143
X33.68Y-21.401
X33.68Y-23.901
X33.757Y-27.472
X33.757Y-29.972
X38.989Y-37.313
X39.243Y-32.436
X42.12Y-18.034
X43.688Y-43.688
X45.8Y-136.4
X45.8Y-141.4
X48.873Y-101.092
X49.149Y-37.313
X49.403Y-32.436
X50.58Y-130.1
X50.58Y-132.64
X50.58Y-135.18
X50.58Y-137.72
X50.58Y-140.26
X50.58Y-142.8
X50.58Y-145.34
X50.58Y-147.88
X51.13Y-91.912
X51.13Y-94.412
X51.41Y-113.476
X51.41Y-118.476
X52.28Y-18.034
X53.848Y-43.688
X53.873Y-101.092
X56.8Y-31.92
X56.8Y-42.08
X58.2Y-130.1
X58.2Y-132.64
X58.2Y-135.18
X58.2Y-137.72
X58.2Y-140.26
X58.2Y-142.8
X58.2Y-145.34
X58.2Y-147.88
X58.953Y-113.513
X58.953Y-116.013
X60.198Y-31.933
X60.198Y-36.933
X64.92Y-41.6
X66.04Y-44.526
X66.04Y-54.686
X74.52Y-16.6
X75.08Y-41.6
X78.486Y-116.586
X80.035Y-111.714
X82.575Y-111.714
X84.68Y-16.6
X85.115Y-111.714
X88.138Y-31.933
X88.138Y-36.933
X88.646Y-116.586
X93.726Y-41.91
X93.726Y-52.07
X94.234Y-18.542
X94.234Y-21.042
X95.25Y-147.908
X95.25Y-152.908
X98.603Y-145.034
X98.603Y-155.194
X99.822Y-41.656
X99.822Y-51.816
X99.873Y-25.959
X100.0Y-22.682
X102.108Y-145.034
X102.108Y-155.194
X103.632Y-46.268
X103.632Y-51.268
X105.664Y-145.034
X105.664Y-155.194
X107.264Y-44.221
X107.264Y-54.381
X109.576Y-112.268
X109.626Y-108.712
X110.033Y-25.959
X110.16Y-22.682
X110.693Y-44.196
X110.693Y-54.356
X111.506Y-17.018
X111.506Y-19.518
X112.597Y-143.4
X112.714Y-57.658
X112.997Y-132.588
X113.762Y-117.77
X113.762Y-125.39
X114.706Y-44.069
X114.706Y-54.229
X114.935Y-69.647
X114.935Y-72.822
X115.392Y-63.094
X115.646Y-66.548
X115.875Y-19.192
X115.875Y-24.192
X116.302Y-117.77
X116.302Y-125.39
X116.789Y-31.322
X116.789Y-36.322
X117.388Y-40.894
X117.597Y-143.4
X117.714Y-57.658
X117.997Y-132.588
X118.237Y-44.018
X118.237Y-54.178
X119.329Y-15.672
X119.736Y-112.268
X119.786Y-108.712
X120.269Y-31.322
X120.269Y-36.322
X120.371Y-140.081
X120.69Y-18.796
X120.69Y-22.098
X122.388Y-40.894
X122.961Y-146.156
X123.012Y-63.094
X123.266Y-66.548
X125.044Y-92.507
X125.095Y-69.647
X125.095Y-72.822
X125.501Y-146.156
X125.69Y-18.796
X125.69Y-22.098
X126.369Y-102.464
X127.548Y-77.597
X127.762Y-41.656
X127.98Y-81.61
X128.041Y-146.156
X128.437Y-88.798
X128.473Y-85.115
X129.489Y-15.672
X130.048Y-45.212
X130.531Y-140.081
X131.369Y-102.464
X132.548Y-77.597
X132.98Y-81.61
X133.161Y-71.044
X133.437Y-88.798
X133.473Y-85.115
X135.048Y-45.212
X135.204Y-92.507
X135.661Y-71.044
X136.322Y-150.52
X136.55Y-145.694
X137.922Y-41.656
X138.125Y-27.573
X138.125Y-32.473
X138.263Y-79.096
X138.481Y-75.413
X139.086Y-83.728
X139.086Y-86.268
X139.086Y-88.808
X139.086Y-91.348
X141.224Y-37.592
X141.224Y-47.752
X142.382Y-98.298
X142.494Y-16.256
X143.586Y-27.893
X143.586Y-32.893
X144.882Y-98.298
X146.05Y-37.592
X146.05Y-47.752
X146.482Y-150.52
X146.706Y-83.728
X146.706Y-86.268
X146.706Y-88.808
X146.706Y-91.348
X146.71Y-145.694
X147.066Y-27.965
X147.066Y-32.965
X148.423Y-79.096
X148.641Y-75.413
X149.555Y-101.8
X149.606Y-94.107
X149.682Y-98.59
X149.835Y-90.729
X150.114Y-37.592
X150.114Y-47.752
X150.368Y-25.988
X150.368Y-30.988
X150.724Y-145.887
X150.724Y-150.887
X151.257Y-81.356
X151.562Y-77.775
X152.629Y-87.147
X152.654Y-16.256
X153.924Y-37.592
X153.924Y-47.752
X154.178Y-24.892
X154.178Y-35.052
X155.956Y-16.256
X157.629Y-87.147
X157.734Y-37.846
X157.734Y-48.006
X159.715Y-101.8
X159.766Y-94.107
X159.842Y-98.59
X159.995Y-90.729
X161.417Y-81.356
X161.722Y-77.775
X161.798Y-37.846
X161.798Y-48.006
X163.195Y-86.451
X163.195Y-91.451
X163.678Y-53.761
X163.678Y-58.761
X166.116Y-16.256
T6
X25.85Y-46.8
X38.55Y-46.8
X56.0Y-18.0
X58.54Y-18.0
X62.2Y-14.8
X62.2Y-27.5
T7
X23.412Y-50.8
X25.912Y-50.8
X28.412Y-50.8
X30.912Y-50.8
X33.412Y-50.8
X35.912Y-50.8
X38.412Y-50.8
X40.912Y-50.8
X43.412Y-50.8
X45.912Y-50.8
X48.412Y-50.8
X50.912Y-50.8
X73.7Y-48.468
X76.2Y-48.468
X78.7Y-48.468
T8
X29.215Y-129.281
X29.215Y-131.821
X29.215Y-134.361
X29.215Y-136.901
X29.215Y-139.441
X29.215Y-141.981
X29.215Y-144.521
X29.215Y-147.061
X29.215Y-149.601
X29.215Y-152.141
X31.755Y-129.281
X31.755Y-131.821
X31.755Y-134.361
X31.755Y-136.901
X31.755Y-139.441
X31.755Y-141.981
X31.755Y-144.521
X31.755Y-147.061
X31.755Y-149.601
X31.755Y-152.141
X41.91Y-90.307
X41.91Y-92.847
X41.91Y-95.387
X41.91Y-97.927
X58.15Y-52.532
X58.801Y-58.191
X58.801Y-60.731
X58.801Y-63.271
X58.801Y-65.811
X58.801Y-68.351
X58.801Y-70.891
X58.801Y-73.431
X58.801Y-75.971
X58.801Y-78.511
X58.801Y-81.051
X58.801Y-83.591
X58.801Y-86.131
X58.801Y-88.671
X58.801Y-91.211
X58.801Y-93.751
X58.801Y-96.291
X58.801Y-98.831
X58.801Y-101.371
X58.801Y-103.911
X58.801Y-106.451
X60.65Y-52.532
X67.35Y-22.332
X67.818Y-31.933
X67.818Y-36.933
X69.85Y-22.332
X74.041Y-58.191
X74.041Y-60.731
X74.041Y-63.271
X74.041Y-65.811
X74.041Y-68.351
X74.041Y-70.891
X74.041Y-73.431
X74.041Y-75.971
X74.041Y-78.511
X74.041Y-81.051
X74.041Y-83.591
X74.041Y-86.131
X74.041Y-88.671
X74.041Y-91.211
X74.041Y-93.751
X74.041Y-96.291
X74.041Y-98.831
X74.041Y-101.371
X74.041Y-103.911
X74.041Y-106.451
X83.007Y-68.377
X83.007Y-70.917
X83.007Y-73.457
X83.007Y-75.997
X83.007Y-78.537
X83.007Y-81.077
X83.007Y-83.617
X83.007Y-86.157
X90.729Y-79.35
X90.729Y-81.89
X90.729Y-84.43
X90.729Y-86.97
X93.218Y-104.648
X93.218Y-112.248
X94.15Y-137.532
X96.2Y-32.232
X96.2Y-37.232
X96.65Y-137.532
X108.306Y-34.366
X110.806Y-34.366
X114.833Y-76.728
X114.833Y-79.268
X114.833Y-81.808
X114.833Y-84.348
X114.833Y-86.888
X114.833Y-89.428
X114.833Y-91.968
X144.485Y-58.666
X149.485Y-58.666
X154.485Y-58.666
X159.485Y-58.666
X161.798Y-29.718
X164.298Y-29.718
T9
X42.164Y-25.024
X44.704Y-25.024
X47.244Y-25.024
X76.708Y-32.187
X79.248Y-32.187
X81.788Y-32.187
X95.504Y-124.46
X95.504Y-128.27
X100.101Y-19.182
X101.32Y-137.8
X102.641Y-19.182
X105.181Y-19.182
X105.664Y-124.46
X105.664Y-128.27
X110.795Y-99.466
X110.947Y-103.911
X111.48Y-137.8
X120.955Y-99.466
X121.107Y-103.911
X125.07Y-97.714
X135.23Y-97.714
X143.122Y-53.34
X158.122Y-53.34
X167.894Y-89.205
X167.894Y-99.365
X168.046Y-74.778
X168.046Y-84.938
X170.942Y-29.838
X170.942Y-44.838
T10
X132.69Y-54.339
X132.69Y-61.839
X135.636Y-139.446
X142.494Y-67.666
X150.876Y-139.446
X167.894Y-67.666
T11
X23.575Y-36.461
X23.575Y-41.461
X28.575Y-38.961
T12
X65.24Y-155.2
X85.56Y-155.2
T13
X125.438Y-106.909
X128.486Y-132.69
X131.787Y-106.909
X141.82Y-106.909
X148.297Y-106.909
X149.186Y-132.564
X157.48Y-133.604
X157.48Y-139.079
X157.48Y-144.554
T14
X19.609Y-21.057
X19.812Y-154.94
X169.266Y-155.448
X170.688Y-20.32
T0
M30
