<svg xmlns="http://www.w3.org/2000/svg" id="Layer_2" viewBox="0 0 110.42 110.42"><defs><style>.cls-1,.cls-2{fill:none;}.cls-3{fill:#27a9e1;}.cls-3,.cls-4{stroke:#164669;}.cls-3,.cls-4,.cls-5,.cls-2{stroke-linecap:round;stroke-linejoin:round;stroke-width:.79px;}.cls-4{fill:#1b75b9;}.cls-5{fill:#fff;}.cls-5,.cls-2{stroke:#254566;}</style></defs><g id="Layer_22"><circle class="cls-1" cx="55.21" cy="55.21" r="55.21"></circle><g id="Layer_22-2"><g><path class="cls-5" d="M27.85,61.05c.94-.26,1.75,.07,1.92,.16,.92,.4,1.33,1.14,1.44,1.36l10.27,19.79c.74,1.44,.21,3.19-1.2,3.92l-4.95,2.52c-1.42,.72-3.16,.13-3.92-1.32-3.02-7.9-6.05-15.79-9.07-23.69h0c1.65-.84,3.3-1.67,4.95-2.52,.13-.07,.31-.14,.54-.21h.01Z"></path><path class="cls-5" d="M34.6,65.26l-9.04,1.44c-3.76,.6-7.3-1.93-7.9-5.65l-.93-5.69c-.6-3.72,1.95-7.22,5.71-7.81l9.04-1.44,3.12,19.17h0Z"></path><path class="cls-3" d="M73.73,73.77c-13.03-2.83-26.08-5.68-39.11-8.51-1.04-6.39-2.07-12.78-3.12-19.17,11.5-6.65,22.99-13.29,34.49-19.94l7.74,47.61h0Z"></path><path class="cls-5" d="M76.23,37.39c4.02-.64,8.08,3.82,9.08,9.94,1,6.12-1.46,11.63-5.48,12.27"></path><path class="cls-4" d="M26.66,39.53c-.14-.46-.54-1.47-1.52-2.32-1.39-1.19-2.99-1.23-3.42-1.23,.52-.24,1.44-.74,2.25-1.73,1.02-1.26,1.26-2.58,1.32-3.15,.21,.5,.92,1.97,2.59,2.88,.93,.5,1.82,.63,2.36,.66-.41,.13-2.05,.72-2.98,2.42-.56,1.02-.62,1.97-.6,2.47Z"></path><line class="cls-2" x1="93.63" y1="46.01" x2="101.84" y2="44.71"></line><line class="cls-2" x1="83.76" y1="24.91" x2="89.52" y2="17.02"></line><line class="cls-2" x1="90.31" y1="35.16" x2="97.18" y2="29.75"></line><line class="cls-2" x1="94.1" y1="57.35" x2="102.28" y2="59.56"></line><line class="cls-2" x1="90.49" y1="69.02" x2="98.52" y2="74.76"></line><path class="cls-5" d="M78.75,78.72h0c-2.27,.36-4.41-1.16-4.76-3.4l-8.34-51.24c-.37-2.25,1.17-4.36,3.45-4.72h0c2.27-.36,4.41,1.16,4.76,3.4l8.34,51.24c.37,2.25-1.17,4.36-3.45,4.72Z"></path><path class="cls-4" d="M16.02,44.13c-.11-.36-.41-1.12-1.17-1.77-1.06-.92-2.29-.94-2.62-.94,.4-.19,1.1-.57,1.72-1.33,.79-.97,.96-1.97,1.02-2.42,.17,.39,.7,1.52,1.97,2.2,.72,.39,1.39,.49,1.8,.52-.31,.1-1.56,.54-2.27,1.85-.43,.77-.47,1.52-.46,1.9h.01Z"></path><path class="cls-4" d="M17.02,33.95c-.1-.34-.39-1.07-1.12-1.69-1.02-.87-2.17-.9-2.49-.89,.37-.17,1.06-.54,1.65-1.27,.74-.92,.92-1.89,.96-2.3,.16,.37,.67,1.44,1.89,2.09,.69,.36,1.32,.46,1.72,.49-.3,.1-1.49,.53-2.17,1.76-.4,.74-.44,1.44-.44,1.8h.01Z"></path></g></g></g></svg>