<?xml version="1.0" encoding="UTF-8"?>
<svg xmlns="http://www.w3.org/2000/svg" id="Layer_2" viewBox="0 0 937.81 454.07">
  <defs>
    <style>.cls-1{fill:#184769;}.cls-2{fill:#174769;}.cls-3{fill:#26abdf;}</style>
  </defs>
  <g id="Layer_1-2">
    <g>
      <g>
        <path class="cls-2" d="M442.61,414.61c3.96,.46,7.74,.9,11.75,1.37-2.22,8.82-5.73,16.73-11.73,23.4-7.2,7.99-16.31,12.35-26.84,13.77-9.79,1.32-19.47,.85-28.84-2.63-13.26-4.92-22.78-13.85-27.76-27.09-6.16-16.37-6.25-32.85,1.56-48.7,8.27-16.78,22.28-25.92,40.79-28,10.46-1.18,20.67-.04,30.31,4.58,12.46,5.98,18.81,16.44,21.86,29.82-3.99,.29-7.82,.58-11.7,.86-.83-2.14-1.56-4.17-2.41-6.15-3.96-9.16-10.89-14.95-20.49-17.4-9.88-2.52-19.69-2.2-29.08,2-10.95,4.91-17.46,13.71-20.47,25.1-3.84,14.53-2.8,28.6,5.26,41.62,5.9,9.54,15.01,14.15,25.87,15.63,6.77,.92,13.51,.67,20.03-1.58,10.48-3.62,16.55-11.46,20.23-21.5,.59-1.61,1.07-3.25,1.67-5.1Z"></path>
        <path class="cls-2" d="M863.17,195.64c-.27,7.21-3.55,13.05-8.33,18.2-4.4,4.74-9.82,8.1-15.43,11.19-22.69,12.49-46.48,22.63-70.32,32.64-26.74,11.23-53.73,21.79-80.89,31.94-.35,.13-.71,.25-1.05,.39-1.81,.74-3.5,.67-4.49-1.2-.95-1.78-.31-3.27,1.29-4.5,5.24-4.02,10.42-8.13,15.66-12.16,30.06-23.12,60.33-45.95,91.66-67.32,10.66-7.27,21.43-14.38,32.77-20.58,5.71-3.12,11.71-5.4,18.28-5.87,5.08-.36,9.9,.44,14.13,3.46,4.72,3.37,6.63,8.15,6.72,13.8Z"></path>
        <path class="cls-2" d="M74.6,195.48c-.03-10.12,7.29-17.06,18.23-17.18,8.06-.09,15.28,2.78,22.14,6.66,16.41,9.3,31.92,20,47.3,30.87,30.97,21.89,61.16,44.84,91.06,68.17,1.16,.91,2.25,1.84,2.16,3.46-.13,2.33-2.29,3.51-4.88,2.55-7.24-2.68-14.46-5.4-21.66-8.18-35.37-13.67-70.58-27.71-104.95-43.76-10.73-5.01-21.4-10.18-31.48-16.43-7.35-4.56-13.46-10.32-16.59-18.67-.91-2.42-1.4-4.9-1.33-7.48Z"></path>
        <path class="cls-2" d="M489.85,38.78c-.2,14.79-1.35,29.53-2.64,44.25-1.21,13.83-2.66,27.63-4.27,41.42-1.62,13.86-3.35,27.71-5.15,41.54-1.5,11.53-3.15,23.04-4.74,34.55-.07,.52-.17,1.04-.24,1.56-.25,1.98-1.22,3.22-3.36,3.16-2.03-.06-2.84-1.36-3.13-3.19-.71-4.44-1.5-8.87-2.16-13.32-2.74-18.32-5.56-36.63-8.12-54.98-2.33-16.72-4.4-33.47-6.07-50.27-1.7-17.03-3.29-34.07-3.05-51.21,.12-8.31,1.71-16.26,6.6-23.22,3.56-5.08,8.25-8.61,14.62-9.03,7.71-.52,12.94,3.59,16.66,9.88,3.78,6.38,4.93,13.45,5.05,20.75,.04,2.7,0,5.41,0,8.11Z"></path>
        <path class="cls-3" d="M191.43,451.78h-12.53c-19.27-28.23-38.56-56.49-58.17-85.22v85.08h-11.67v-103.05h12.65c19.17,28.08,38.42,56.29,58.09,85.1v-85.1h11.62v103.18Z"></path>
        <path class="cls-2" d="M935.36,375.34h-11.44c-.73-.79-.48-1.84-.69-2.77-1.74-7.52-6.51-12.24-13.77-14.35-6.56-1.9-13.24-1.8-19.75,.33-8.76,2.86-14.17,11.75-12.46,20.19,.83,4.1,3.34,6.98,6.82,9.07,5.04,3.02,10.69,4.27,16.35,5.43,8.02,1.64,15.92,3.6,23.42,7.04,11.68,5.35,15.07,14.66,13.67,26.41-1.4,11.81-8.08,19.96-19.14,24.02-12.47,4.57-25.2,4.51-37.65-.24-10.72-4.09-18.08-14.19-18.17-27.16,3.8,0,7.61,0,11.42,0,.63,.83,.54,1.86,.78,2.79,2.18,8.46,7.43,13.92,15.96,15.97,8.49,2.04,16.84,1.9,24.75-2.33,7.6-4.06,11.21-12.17,9.29-20.54-.9-3.92-3.16-6.7-6.72-8.53-6.42-3.3-13.45-4.59-20.38-6.19-6.73-1.56-13.33-3.51-19.54-6.65-9.05-4.58-13.57-11.76-12.75-23.47,.92-13.16,8.43-21.5,20.58-25.71,9.5-3.29,19.25-3.11,28.83-.31,11.76,3.44,17.87,12,20.24,23.6,.22,1.08,.72,2.16,.35,3.42Z"></path>
        <path class="cls-2" d="M743.18,423.28h11.57c.43,1.65,.77,3.26,1.27,4.81,1.94,5.97,5.7,10.48,11.59,12.7,9.69,3.65,19.42,3.71,28.78-1.2,7.37-3.86,11.03-12.4,9.04-20.49-.93-3.78-3.09-6.58-6.59-8.38-6.42-3.31-13.43-4.62-20.37-6.23-7.68-1.79-15.24-3.95-22.09-8.05-6.62-3.95-9.74-9.93-10.36-17.45-1.35-16.36,9.39-28.5,25.39-31.72,6.86-1.38,13.77-1.27,20.6,.13,12.94,2.65,20.55,10.74,23.44,23.48,.31,1.38,.51,2.78,.8,4.38h-11.87c-.23-1.15-.41-2.4-.74-3.61-1.64-6.07-5.41-10.4-11.24-12.6-8.03-3.04-16.21-3.01-24.14,.38-7.27,3.11-11.6,10.97-10.48,18.69,.69,4.75,3.67,7.94,7.77,10.17,5.49,2.98,11.55,4.12,17.58,5.38,7.65,1.59,15.16,3.6,22.23,7.04,10.13,4.93,13.67,13.21,13,24.02-.96,15.59-11.9,25.94-28.27,28.39-9.75,1.45-19.49,1.17-28.79-2.64-11.1-4.54-17.95-14.78-18.13-27.19Z"></path>
        <path class="cls-2" d="M584.84,414.64c3.96,.46,7.74,.9,11.75,1.37-2.22,8.82-5.73,16.73-11.73,23.4-7.2,7.99-16.31,12.35-26.84,13.77-9.79,1.32-19.47,.85-28.84-2.63-13.26-4.92-22.78-13.85-27.76-27.09-6.16-16.37-6.25-32.85,1.56-48.7,8.27-16.78,22.28-25.92,40.79-28,10.46-1.18,20.67-.04,30.31,4.58,12.46,5.98,18.81,16.44,21.86,29.82-3.99,.29-7.82,.58-11.7,.86-.83-2.14-1.56-4.17-2.41-6.15-3.96-9.16-10.89-14.95-20.49-17.4-9.88-2.52-19.69-2.2-29.08,2-10.95,4.91-17.46,13.71-20.47,25.1-3.84,14.53-2.8,28.6,5.26,41.62,5.9,9.54,15.01,14.15,25.87,15.63,6.77,.92,13.51,.67,20.03-1.58,10.48-3.62,16.55-11.46,20.23-21.5,.59-1.61,1.07-3.25,1.67-5.1Z"></path>
        <path class="cls-2" d="M277.44,127.55c6.99,.35,12.41,3.95,17.32,8.58,7.17,6.76,11.91,15.2,16.3,23.86,9.46,18.66,17.66,37.89,25.72,57.18,.71,1.7,.77,3.26-.8,4.45-1.59,1.21-3.1,.68-4.49-.51-18.94-16.33-38.21-32.3-55.99-49.92-6.07-6.02-10.64-12.99-12.44-21.51-.97-4.58-.92-9.11,1.02-13.46,2.56-5.73,7.07-8.53,13.35-8.68Z"></path>
        <path class="cls-2" d="M675.19,145.64c-.27,8.39-4.61,16.41-10.99,23.38-7.92,8.66-16.82,16.31-25.63,24.05-10.55,9.27-21.24,18.39-31.86,27.57-.17,.15-.34,.3-.51,.45-1.37,1.22-2.89,1.75-4.48,.57-1.56-1.16-1.56-2.72-.84-4.44,5.28-12.65,10.64-25.27,16.38-37.73,4.86-10.55,9.7-21.12,15.8-31.04,3.81-6.19,8.37-11.74,14.31-16.03,4.63-3.34,9.7-5.55,15.55-4.65,7.52,1.17,12.27,7.71,12.27,17.86Z"></path>
        <path class="cls-1" d="M699.48,393.36v10.61h-45.24v37.37h46.54v10.37h-58.34v-103.27h58.32v10.4h-46.54v34.52h45.26Z"></path>
        <path class="cls-3" d="M11.69,393.53H56.85v10.42H11.69v37.42H58.26v10.31H0v-103.08H58.25v10.2H11.69v34.73Z"></path>
      </g>
      <path class="cls-2" d="M271.29,348.39h12.03c12.96,34.42,25.91,68.82,38.92,103.37h-13.24c-3.39-9.56-6.81-19.2-10.25-28.87h-42.89c-3.4,9.58-6.8,19.17-10.23,28.84h-13.24c12.98-34.49,25.91-68.82,38.9-103.34Zm5.76,15.17c-5.72,16.13-11.45,32.26-17.19,48.46h34.9c-5.78-16.3-11.5-32.41-17.22-48.53-.16,.02-.32,.05-.49,.07Z"></path>
    </g>
  </g>
</svg>
