<?xml version="1.0" encoding="utf-8"?>
<!-- Generator: Adobe Illustrator 19.0.0, SVG Export Plug-In . SVG Version: 6.00 Build 0)  -->
<svg version="1.1" id="Capa_1" xmlns="http://www.w3.org/2000/svg" xmlns:xlink="http://www.w3.org/1999/xlink" x="0px" y="0px"
	 viewBox="0 0 1920 961.2" style="enable-background:new 0 0 1920 961.2;" xml:space="preserve">
<style type="text/css">
	.st0{fill:#FFFFFF;}
</style>
<g id="XMLID_69_">
	<g id="XMLID_78_">
		<path id="XMLID_132_" class="st0" d="M40.9,733h114.2v20.5H63.6v67.9h88.9v20.5H63.6v73.3h91.6v20.5H40.9V733z"/>
		<path id="XMLID_130_" class="st0" d="M254.3,733h24.5l114,167h0.5V733h22.6v202.6h-24.5l-114-167h-0.5v167h-22.6V733z"/>
		<path id="XMLID_127_" class="st0" d="M572.2,733h23.2l76.2,202.6H646l-20.2-57.1h-84.1l-20.2,57.1h-25.6L572.2,733z M584,761.5
			h-0.5L549.3,858h69L584,761.5z"/>
		<path id="XMLID_93_" class="st0" d="M906,798.7c-4.8-17.1-13.1-29.5-24.8-37.3c-11.7-7.8-25.8-11.7-42.3-11.7
			c-13.5,0-25.2,2.4-35.3,7.1c-10.1,4.8-18.3,11.2-24.7,19.3c-6.4,8.1-11.1,17.2-14.1,27.2c-3.1,10.1-4.6,20.4-4.6,31
			c0,10.8,1.4,21.1,4.2,31c2.8,9.9,7.3,18.9,13.5,27.1c6.2,8.2,14.4,14.6,24.7,19.4c10.2,4.8,22.4,7.1,36.4,7.1
			c18.5,0,33.4-4.9,44.7-14.7c11.3-9.8,19.2-23.6,23.7-41.4l22.9,2.7c-2.3,9.5-5.7,18.5-10.1,27.1c-4.4,8.5-10.3,16.3-17.6,23.4
			c-7.4,7.1-16.5,12.8-27.5,17c-11,4.2-23.8,6.3-38.5,6.3c-14.5,0-28-2.4-40.3-7.3c-12.3-4.8-23-11.9-32.1-21
			c-9.1-9.2-16-20.2-20.9-33.3c-4.8-13-7.3-27.5-7.3-43.5c0-14.9,2.6-28.8,7.7-41.8c5.1-12.9,12.4-24.2,21.8-33.7
			c9.4-9.5,20.4-16.8,33-22c12.6-5.1,26-7.7,40.4-7.7c15.3,0,28.4,2.1,39.5,6.3c11,4.2,20,9.7,26.8,16.3
			c6.8,6.6,12.1,13.9,15.8,21.7c3.7,7.8,6.3,15.7,7.9,23.6L906,798.7z"/>
		<path id="XMLID_54_" class="st0" d="M1184.2,798.7c-4.8-17.1-13.1-29.5-24.8-37.3c-11.7-7.8-25.8-11.7-42.3-11.7
			c-13.5,0-25.2,2.4-35.3,7.1c-10.1,4.8-18.3,11.2-24.7,19.3c-6.4,8.1-11.1,17.2-14.1,27.2c-3.1,10.1-4.6,20.4-4.6,31
			c0,10.8,1.4,21.1,4.2,31c2.8,9.9,7.3,18.9,13.5,27.1c6.2,8.2,14.4,14.6,24.7,19.4c10.2,4.8,22.4,7.1,36.4,7.1
			c18.5,0,33.4-4.9,44.7-14.7c11.3-9.8,19.2-23.6,23.7-41.4l22.9,2.7c-2.3,9.5-5.7,18.5-10.1,27.1c-4.4,8.5-10.3,16.3-17.6,23.4
			c-7.4,7.1-16.5,12.8-27.5,17c-11,4.2-23.8,6.3-38.5,6.3c-14.5,0-28-2.4-40.3-7.3c-12.3-4.8-23-11.9-32.1-21
			c-9.1-9.2-16-20.2-20.9-33.3c-4.8-13-7.3-27.5-7.3-43.5c0-14.9,2.6-28.8,7.7-41.8c5.1-12.9,12.4-24.2,21.8-33.7
			c9.4-9.5,20.4-16.8,33-22c12.6-5.1,26-7.7,40.4-7.7c15.3,0,28.4,2.1,39.5,6.3c11,4.2,20,9.7,26.8,16.3
			c6.8,6.6,12.1,13.9,15.8,21.7c3.7,7.8,6.3,15.7,7.9,23.6L1184.2,798.7z"/>
		<path id="XMLID_40_" class="st0" d="M1298.5,733h114.2v20.5h-91.6v67.9h88.9v20.5h-88.9v73.3h91.6v20.5h-114.2V733z"/>
		<path id="XMLID_38_" class="st0" d="M1615.3,785.8c-0.4-4.5-1.4-8.8-3.2-13.1c-1.8-4.2-4.5-8.1-8.2-11.6
			c-3.7-3.5-8.4-6.3-14.1-8.4c-5.7-2.1-12.5-3.1-20.2-3.1c-15.1,0-26.5,3.6-34.2,10.9c-7.7,7.3-11.6,16.2-11.6,26.8
			c0,7.7,3.2,14.4,9.7,19.9c6.5,5.6,18.3,10.1,35.6,13.5c26.8,5.2,45.7,11.9,57,20.1c11.2,8.2,16.8,20.7,16.8,37.6
			c0,7.9-1.4,15.5-4.3,22.8c-2.9,7.3-7.3,13.8-13.3,19.5c-6,5.7-13.7,10.3-23.2,13.6c-9.4,3.3-20.5,5-33.3,5
			c-22.6,0-40.2-5.3-52.8-15.8c-12.6-10.5-19.4-25.2-20.5-44h22.9c2,13.1,7.3,22.9,16,29.5c8.7,6.6,20.5,9.8,35.4,9.8
			c8.3,0,15.5-1.1,21.8-3.4c6.3-2.2,11.4-5.2,15.4-8.9c3.9-3.7,6.9-7.8,8.8-12.3c1.9-4.5,2.8-9.1,2.8-13.7
			c0-10.8-3.4-18.6-10.2-23.4c-6.8-4.8-19.5-9.2-38-13.2c-24.6-5.2-42.3-11.9-53.1-19.9c-10.8-8.1-16.2-20.3-16.2-36.6
			c0-8.3,1.6-15.9,4.8-23c3.2-7.1,7.9-13.3,13.9-18.6c6-5.3,13.2-9.4,21.7-12.3c8.4-2.9,17.7-4.3,27.7-4.3c12,0,22.3,1.5,30.7,4.4
			c8.4,3,15.3,7.1,20.6,12.4c5.3,5.3,9.3,11.3,12.1,17.9c2.8,6.6,4.7,13.9,5.8,21.8H1615.3z"/>
		<path id="XMLID_79_" class="st0" d="M1848.8,785.8c-0.4-4.5-1.4-8.8-3.2-13.1c-1.8-4.2-4.5-8.1-8.2-11.6
			c-3.7-3.5-8.4-6.3-14.1-8.4c-5.7-2.1-12.5-3.1-20.2-3.1c-15.1,0-26.5,3.6-34.2,10.9c-7.7,7.3-11.6,16.2-11.6,26.8
			c0,7.7,3.2,14.4,9.7,19.9c6.5,5.6,18.3,10.1,35.6,13.5c26.8,5.2,45.7,11.9,57,20.1c11.2,8.2,16.8,20.7,16.8,37.6
			c0,7.9-1.4,15.5-4.3,22.8c-2.9,7.3-7.3,13.8-13.3,19.5c-6,5.7-13.7,10.3-23.2,13.6c-9.4,3.3-20.5,5-33.3,5
			c-22.6,0-40.2-5.3-52.8-15.8c-12.6-10.5-19.4-25.2-20.5-44h22.9c2,13.1,7.3,22.9,16,29.5c8.7,6.6,20.5,9.8,35.4,9.8
			c8.3,0,15.5-1.1,21.8-3.4c6.3-2.2,11.4-5.2,15.4-8.9c3.9-3.7,6.9-7.8,8.8-12.3c1.9-4.5,2.8-9.1,2.8-13.7
			c0-10.8-3.4-18.6-10.2-23.4c-6.8-4.8-19.5-9.2-38-13.2c-24.6-5.2-42.3-11.9-53.1-19.9c-10.8-8.1-16.2-20.3-16.2-36.6
			c0-8.3,1.6-15.9,4.8-23c3.2-7.1,7.9-13.3,13.9-18.6c6-5.3,13.2-9.4,21.7-12.3c8.4-2.9,17.7-4.3,27.7-4.3c12,0,22.3,1.5,30.7,4.4
			c8.4,3,15.3,7.1,20.6,12.4c5.3,5.3,9.3,11.3,12.1,17.9c2.8,6.6,4.7,13.9,5.8,21.8H1848.8z"/>
	</g>
	<g id="XMLID_70_">
		<g id="XMLID_74_">
			<path id="XMLID_77_" class="st0" d="M264.3,412.2c-36.9-20.3-63.2-12.5-72.8,4.3c-10.5,18.3-2.8,47.9,32.3,69.1
				c79,47.8,299.6,129.9,308.9,133.4c0.7,0.3,1.4,0.4,2.1,0.4c2.1,0,4.2-1.1,5.3-3.1c1.5-2.6,0.8-5.9-1.5-7.8
				C536.7,607,347.9,458.2,264.3,412.2z"/>
			<path id="XMLID_76_" class="st0" d="M959.7,50.9C959.7,50.9,959.6,50.9,959.7,50.9c-21.1,0-42.9,21.4-43.8,62.5
				c-2.1,92.3,36.6,324.5,38.3,334.3c0.5,2.9,3,5.1,6,5.1c0,0,0,0,0.1,0c3,0,5.5-2.2,6-5.2c0.4-2.4,35.3-240.2,33.6-335.7
				C998.9,69.8,979.1,51,959.7,50.9z"/>
			<path id="XMLID_75_" class="st0" d="M634.4,337.4c-17.1-25.1-36.8-38.3-54.2-36.4c-10.4,1.2-18.7,7.7-22.7,18
				c-5.3,13.6-3.4,37,18.1,61.8c19.4,22.4,111.6,100.4,115.5,103.7c1.1,1,2.5,1.4,3.9,1.4c1.3,0,2.5-0.4,3.6-1.2
				c2.3-1.6,3.1-4.6,2.1-7.2C698.8,473.2,656.6,370.1,634.4,337.4z"/>
		</g>
		<g id="XMLID_71_">
			<path id="XMLID_73_" class="st0" d="M1653,412.2c36.9-20.3,63.2-12.5,72.8,4.3c10.5,18.3,2.8,47.9-32.3,69.1
				c-79,47.8-299.6,129.9-308.9,133.4c-0.7,0.3-1.4,0.4-2.1,0.4c-2.1,0-4.2-1.1-5.3-3.1c-1.5-2.6-0.8-5.9,1.5-7.8
				C1380.6,607,1569.4,458.2,1653,412.2z"/>
			<path id="XMLID_72_" class="st0" d="M1282.9,337.4c17.1-25.1,36.8-38.3,54.2-36.4c10.4,1.2,18.7,7.7,22.7,18
				c5.3,13.6,3.4,37-18.1,61.8c-19.4,22.4-111.6,100.4-115.5,103.7c-1.1,1-2.5,1.4-3.9,1.4c-1.3,0-2.5-0.4-3.6-1.2
				c-2.3-1.6-3.1-4.6-2.1-7.2C1218.5,473.2,1260.6,370.1,1282.9,337.4z"/>
		</g>
	</g>
</g>
</svg>
