<svg xmlns="http://www.w3.org/2000/svg" id="Layer_2" viewBox="0 0 110.42 110.42"><defs><style>.get-started-cls-1,.get-started-cls-2{fill:none;}.get-started-cls-3{fill:#27a9e1;}.get-started-cls-3,.get-started-cls-4,.get-started-cls-2{stroke:#164669;stroke-linecap:round;stroke-linejoin:round;stroke-width:.79px;}.get-started-cls-4{fill:#fff;}</style></defs><g id="Layer_22"><circle class="get-started-cls-1" cx="55.21" cy="55.21" r="55.21"></circle><g><path class="get-started-cls-3" d="M41.03,53.85c-4.04-.55-8.08-1.1-12.13-1.65,1.44-2.33,3.62-5.26,6.85-8.01,6.66-5.69,13.87-7.33,17.46-7.88"></path><path class="get-started-cls-3" d="M52.56,68.9c-.49,4.05-.98,8.1-1.46,12.15,2.62-.8,6-2.18,9.48-4.6,7.19-5.01,10.6-11.57,12.04-14.91"></path><path class="get-started-cls-4" d="M37.75,62.16c4.78-13.44,11.46-21.65,15.46-25.86,5.03-5.29,8.73-7.31,10.68-8.25,5.98-2.87,11.49-3.17,15.36-3.34,5.39-.24,9.94,.44,13.26,1.19-.02,3.35-.41,8.28-2.29,13.88-.59,1.76-1.97,5.81-4.84,10.01-4.97,7.29-11.48,10.76-16.21,13.21-10.04,5.2-19.67,6.41-26.08,6.58-1.78-2.47-3.56-4.95-5.34-7.42Z"></path><line class="get-started-cls-2" x1="72.18" y1="25.41" x2="87.82" y2="45.65"></line><circle class="get-started-cls-3" cx="67.99" cy="44.76" r="5.53"></circle><line class="get-started-cls-2" x1="34.41" y1="71.42" x2="14.92" y2="86.47"></line><line class="get-started-cls-2" x1="29.19" y1="64.77" x2="16.34" y2="74.7"></line><line class="get-started-cls-2" x1="39.75" y1="77.89" x2="30.37" y2="85.13"></line></g></g></svg>
