<svg
  xmlns="http://www.w3.org/2000/svg"
  id="Layer_2"
  viewBox="0 0 470.87 529.52"
>
  <defs>
    <style>
      .cls-1 {
        fill: #28a9e1;
      }
      .cls-1,
      .cls-2,
      .cls-3,
      .cls-4 {
        stroke: #164669;
        stroke-width: 5px;
      }
      .cls-1,
      .cls-3 {
        stroke-linecap: round;
        stroke-linejoin: round;
      }
      .cls-2 {
        fill: #f3f8fc;
      }
      .cls-2,
      .cls-4 {
        stroke-miterlimit: 10;
      }
      .cls-5 {
        fill: #f9b15c;
      }
      .cls-6 {
        fill: #80a771;
      }
      .cls-7 {
        fill: #c5e1b4;
      }
      .cls-3 {
        fill: none;
      }
      .cls-4 {
        fill: #ffffff;
      }
    </style>
  </defs>
  <g id="Layer_1-2">
    <g>
      <circle class="cls-4" cx="235.43" cy="235.43" r="232.93"></circle>
      <g>
        <path
          class="cls-6"
          d="M134.61,85.63c9.58,19.73,19.15,39.47,28.73,59.2,9.75-6.76,26.95-16.69,50.38-20.44,41.38-6.62,73.54,10.6,83.61,16.54,14.2-15,28.4-30,42.6-45-12.36-9.59-49.68-35.99-104.43-37.7-50.67-1.59-87.33,18.88-100.91,27.39Z"
        ></path>
        <path
          class="cls-7"
          d="M134.61,85.63c14.89,16.72,29.78,33.45,44.66,50.17-10.53,5.47-27.33,16.05-41.58,35.03-25.16,33.51-24.93,69.99-24.37,81.68-19.89,5.57-39.78,11.13-59.68,16.7-2.74-15.95-8.34-61.04,15.36-109.95,20.36-42.02,51.57-64.65,65.6-73.62Z"
        ></path>
        <path
          class="cls-5"
          d="M329.85,88.08c-14.89,16.72-29.78,33.45-44.66,50.17,10.53,5.47,27.33,16.05,41.58,35.03,25.16,33.51,24.93,69.99,24.37,81.68,19.89,5.57,39.78,11.13,59.68,16.7,2.74-15.95,8.34-61.04-15.36-109.95-20.36-42.02-51.57-64.65-65.6-73.62Z"
        ></path>
      </g>
      <path
        class="cls-3"
        d="M246.23,193.89c-14.48,20.84-28.97,41.68-43.45,62.52,20.92,.38,29.37,.31,30.59,0,.02,0,.05-.01,.08,0,1.27,.45-5.65,23.03-13.83,48.33,17.44-20.99,34.88-41.97,52.32-62.96h-30.6c1.63-15.96,3.25-31.92,4.88-47.89Z"
      ></path>
      <path
        class="cls-3"
        d="M113.33,252.51c-.23-3.03-.35-6.1-.35-9.2,0-65.5,53.1-118.61,118.61-118.61s118.61,53.1,118.61,118.61c0,3.52-.15,7-.45,10.44"
      ></path>
      <path
        class="cls-3"
        d="M53.65,269.21c-1.76-10.13-2.68-20.55-2.68-31.18,0-99.75,80.86-180.61,180.61-180.61s180.61,80.86,180.61,180.61c0,11.49-1.07,22.73-3.12,33.62"
      ></path>
      <line class="cls-3" x1="53.66" y1="269.21" x2="113.33" y2="252.51"></line>
      <line
        class="cls-3"
        x1="349.73"
        y1="253.76"
        x2="409.07"
        y2="271.65"
      ></line>
      <g>
        <circle class="cls-2" cx="232.22" cy="444.47" r="82.55"></circle>
        <circle class="cls-1" cx="232.22" cy="483.53" r="7.21"></circle>
        <path
          class="cls-3"
          d="M209.8,468.37c4.5-7.52,12.73-12.55,22.13-12.55s18.38,5.5,22.72,13.6"
        ></path>
        <path
          class="cls-3"
          d="M190.61,446.51c10.01-11.61,24.82-18.95,41.34-18.95s31.86,7.61,41.87,19.57"
        ></path>
        <path
          class="cls-3"
          d="M173.21,427.72c12.57-19.03,34.15-31.58,58.67-31.58s46.88,13.01,59.35,32.63"
        ></path>
      </g>
    </g>
  </g>
</svg>
