<?xml version="1.0" encoding="UTF-8"?>
<svg xmlns="http://www.w3.org/2000/svg" id="Layer_2" viewBox="0 0 110.42 110.42">
  <defs>
    <style>.cls-1,.cls-2{fill:none;}.cls-3{fill:#1b75b9;}.cls-3,.cls-4,.cls-2{stroke-linecap:round;stroke-linejoin:round;stroke-width:.79px;}.cls-3,.cls-2{stroke:#164669;}.cls-4{fill:#fff;stroke:#2c4564;}</style>
  </defs>
  <g id="Layer_22">
    <g>
      <circle class="cls-1" cx="55.21" cy="55.21" r="55.21"></circle>
      <g id="Layer_1-2">
        <rect class="cls-4" x="24.27" y="16.66" width="62.91" height="77.55" rx="5.26" ry="5.26"></rect>
      </g>
      <path class="cls-3" d="M53.12,37.14l1.33,3.31c-.6,1.03-1.33,1.95-2.18,2.79l-3.51-.56c-.89,.44-1.77,.87-2.66,1.3l-1.78,3.14c-.59,.08-1.18,.12-1.77,.12-.55,0-1.11-.03-1.64-.09l-1.77-3.11c-.93-.45-1.85-.89-2.77-1.33l-3.52,.56c-.81-.79-1.53-1.69-2.12-2.67l1.32-3.29c-.23-1-.46-2.01-.69-3.02l-2.58-2.36c.13-1.19,.4-2.33,.81-3.4l3.35-1c.63-.77,1.24-1.54,1.87-2.31l.23-3.42c1.02-.66,2.12-1.19,3.3-1.56l2.85,1.97c.94,0,1.88,.01,2.81,.02l2.81-1.95c1.2,.39,2.33,.93,3.35,1.62l.23,3.45c.57,.71,1.14,1.43,1.71,2.14l3.35,1c.44,1.13,.72,2.32,.84,3.57l-2.58,2.36c-.21,.92-.41,1.84-.61,2.75h-.01Zm-10.57-11.22c-4.31,0-7.81,3.5-7.81,7.81s3.5,7.81,7.81,7.81,7.81-3.5,7.81-7.81-3.5-7.81-7.81-7.81Z"></path>
      <line class="cls-2" x1="33.45" y1="52.15" x2="79.2" y2="52.15"></line>
      <line class="cls-2" x1="33.45" y1="58.46" x2="79.2" y2="58.46"></line>
      <line class="cls-2" x1="33.45" y1="64.77" x2="79.2" y2="64.77"></line>
      <line class="cls-2" x1="33.45" y1="71.08" x2="79.2" y2="71.08"></line>
      <line class="cls-2" x1="33.45" y1="77.39" x2="79.2" y2="77.39"></line>
      <line class="cls-2" x1="33.45" y1="83.7" x2="55.54" y2="83.7"></line>
      <g>
        <path class="cls-4" d="M55.47,83.08c1.59-3.1,2.91-4.83,4.36-7.25l38.61-30.01c1.37-1.06,3.37-.81,4.43,.55s.82,3.36-.55,4.43c-12.94,10.06-25.88,20.12-38.83,30.18-2.67,.7-4.49,1.49-8.01,2.1Z"></path>
        <line class="cls-4" x1="94.7" y1="48.73" x2="98.57" y2="53.71"></line>
        <line class="cls-4" x1="59.83" y1="75.83" x2="63.7" y2="80.81"></line>
      </g>
    </g>
  </g>
</svg>
