%TF.GenerationSoftware,KiCad,Pcbnew,(6.99.0-1031-g46d719ed42)*%
%TF.CreationDate,2022-10-20T15:30:39+01:00*%
%TF.ProjectId,EnAcess PCB,456e4163-6573-4732-9050-43422e6b6963,rev?*%
%TF.SameCoordinates,Original*%
%TF.FileFunction,Soldermask,Top*%
%TF.FilePolarity,Negative*%
%FSLAX46Y46*%
G04 Gerber Fmt 4.6, Leading zero omitted, Abs format (unit mm)*
G04 Created by KiCad (PCBNEW (6.99.0-1031-g46d719ed42)) date 2022-10-20 15:30:39*
%MOMM*%
%LPD*%
G01*
G04 APERTURE LIST*
G04 Aperture macros list*
%AMRoundRect*
0 Rectangle with rounded corners*
0 $1 Rounding radius*
0 $2 $3 $4 $5 $6 $7 $8 $9 X,Y pos of 4 corners*
0 Add a 4 corners polygon primitive as box body*
4,1,4,$2,$3,$4,$5,$6,$7,$8,$9,$2,$3,0*
0 Add four circle primitives for the rounded corners*
1,1,$1+$1,$2,$3*
1,1,$1+$1,$4,$5*
1,1,$1+$1,$6,$7*
1,1,$1+$1,$8,$9*
0 Add four rect primitives between the rounded corners*
20,1,$1+$1,$2,$3,$4,$5,0*
20,1,$1+$1,$4,$5,$6,$7,0*
20,1,$1+$1,$6,$7,$8,$9,0*
20,1,$1+$1,$8,$9,$2,$3,0*%
G04 Aperture macros list end*
%ADD10R,2.200000X2.200000*%
%ADD11O,2.200000X2.200000*%
%ADD12C,1.600000*%
%ADD13O,1.600000X1.600000*%
%ADD14R,2.000000X2.000000*%
%ADD15C,2.000000*%
%ADD16R,1.700000X1.700000*%
%ADD17O,1.700000X1.700000*%
%ADD18R,1.600000X1.600000*%
%ADD19R,3.500000X2.500000*%
%ADD20O,3.500000X2.500000*%
%ADD21RoundRect,0.200000X0.275000X-0.200000X0.275000X0.200000X-0.275000X0.200000X-0.275000X-0.200000X0*%
%ADD22C,3.600000*%
%ADD23C,5.500000*%
%ADD24R,1.500000X1.500000*%
%ADD25C,1.500000*%
%ADD26RoundRect,0.250000X-0.600000X-0.750000X0.600000X-0.750000X0.600000X0.750000X-0.600000X0.750000X0*%
%ADD27O,1.700000X2.000000*%
%ADD28C,2.340000*%
%ADD29RoundRect,0.250000X0.600000X0.725000X-0.600000X0.725000X-0.600000X-0.725000X0.600000X-0.725000X0*%
%ADD30O,1.700000X1.950000*%
%ADD31C,0.100000*%
%ADD32C,3.000000*%
%ADD33R,1.200000X1.200000*%
%ADD34C,1.200000*%
%ADD35RoundRect,0.250000X-0.550000X-0.550000X0.550000X-0.550000X0.550000X0.550000X-0.550000X0.550000X0*%
%ADD36C,2.200000*%
%ADD37O,1.500000X1.500000*%
%ADD38C,2.800000*%
%ADD39O,2.800000X2.800000*%
%ADD40R,1.800000X1.800000*%
%ADD41C,1.800000*%
%ADD42RoundRect,0.250000X0.600000X0.750000X-0.600000X0.750000X-0.600000X-0.750000X0.600000X-0.750000X0*%
%ADD43R,1.905000X2.000000*%
%ADD44O,1.905000X2.000000*%
%ADD45R,1.750000X0.450000*%
%ADD46RoundRect,0.250000X-0.600000X-0.725000X0.600000X-0.725000X0.600000X0.725000X-0.600000X0.725000X0*%
%ADD47C,2.400000*%
%ADD48O,2.400000X2.400000*%
%ADD49R,2.400000X2.400000*%
G04 APERTURE END LIST*
D10*
%TO.C,D8*%
X111479999Y-137799999D03*
D11*
X101319999Y-137799999D03*
%TD*%
D12*
%TO.C,R11*%
X37720000Y-136400000D03*
D13*
X47879999Y-136399999D03*
%TD*%
D12*
%TO.C,R31*%
X138263000Y-79095600D03*
D13*
X148422999Y-79095599D03*
%TD*%
D12*
%TO.C,C15*%
X51409600Y-113476400D03*
X51409600Y-118476400D03*
%TD*%
%TO.C,R24*%
X102108000Y-145034000D03*
D13*
X102107999Y-155193999D03*
%TD*%
D14*
%TO.C,C20*%
X67817999Y-31932999D03*
D15*
X67818000Y-36933000D03*
%TD*%
D12*
%TO.C,R56*%
X74920000Y-136400000D03*
D13*
X85079999Y-136399999D03*
%TD*%
D16*
%TO.C,J6*%
X58800999Y-58191399D03*
D17*
X58800999Y-60731399D03*
X58800999Y-63271399D03*
X58800999Y-65811399D03*
X58800999Y-68351399D03*
X58800999Y-70891399D03*
X58800999Y-73431399D03*
X58800999Y-75971399D03*
X58800999Y-78511399D03*
X58800999Y-81051399D03*
X58800999Y-83591399D03*
X58800999Y-86131399D03*
X58800999Y-88671399D03*
X58800999Y-91211399D03*
X58800999Y-93751399D03*
X58800999Y-96291399D03*
X58800999Y-98831399D03*
X58800999Y-101371399D03*
X58800999Y-103911399D03*
X58800999Y-106451399D03*
%TD*%
D18*
%TO.C,C26*%
X144881599Y-98297999D03*
D12*
X142381600Y-98298000D03*
%TD*%
%TO.C,C8*%
X60198000Y-31933000D03*
X60198000Y-36933000D03*
%TD*%
%TO.C,TH1*%
X163677600Y-53761000D03*
X163677600Y-58761000D03*
%TD*%
D19*
%TO.C,Q3*%
X157479999Y-133603999D03*
D20*
X157479999Y-139078999D03*
X157479999Y-144553999D03*
%TD*%
D10*
%TO.C,D7*%
X95503999Y-128269999D03*
D11*
X105663999Y-128269999D03*
%TD*%
D12*
%TO.C,C39*%
X130048000Y-45212000D03*
X135048000Y-45212000D03*
%TD*%
%TO.C,R17*%
X66040000Y-54686200D03*
D13*
X66039999Y-44526199D03*
%TD*%
D12*
%TO.C,R12*%
X161798000Y-37846000D03*
D13*
X161797999Y-48005999D03*
%TD*%
D21*
%TO.C,R50*%
X130302000Y-20129000D03*
X130302000Y-18479000D03*
%TD*%
D22*
%TO.C,H3*%
X169265600Y-155448000D03*
D23*
X169265600Y-155448000D03*
%TD*%
D24*
%TO.C,U6*%
X122961399Y-146155999D03*
D25*
X125501400Y-146156000D03*
X128041400Y-146156000D03*
%TD*%
D12*
%TO.C,C27*%
X131368800Y-102463600D03*
X126368800Y-102463600D03*
%TD*%
D26*
%TO.C,J13*%
X66040000Y-22606000D03*
D27*
X68539999Y-22605999D03*
%TD*%
D18*
%TO.C,U9*%
X47799999Y-124124999D03*
D13*
X47799999Y-126664999D03*
X55419999Y-126664999D03*
X55419999Y-124124999D03*
%TD*%
D18*
%TO.C,D12*%
X123266199Y-66547999D03*
D13*
X115646199Y-66547999D03*
%TD*%
D12*
%TO.C,R45*%
X127762000Y-41656000D03*
D13*
X137921999Y-41655999D03*
%TD*%
D24*
%TO.C,Q2*%
X80035399Y-111713599D03*
D25*
X82575400Y-111713600D03*
X85115400Y-111713600D03*
%TD*%
D26*
%TO.C,J8*%
X161798000Y-29718000D03*
D27*
X164297999Y-29717999D03*
%TD*%
D12*
%TO.C,C37*%
X120690000Y-22098000D03*
X125690000Y-22098000D03*
%TD*%
%TO.C,R23*%
X161417000Y-81356200D03*
D13*
X151256999Y-81356199D03*
%TD*%
D12*
%TO.C,R34*%
X114935000Y-69646800D03*
D13*
X125094999Y-69646799D03*
%TD*%
D28*
%TO.C,RV2*%
X23575000Y-41461200D03*
X28575000Y-38961200D03*
X23575000Y-36461200D03*
%TD*%
D18*
%TO.C,C5*%
X23037799Y-64388999D03*
D12*
X20537800Y-64389000D03*
%TD*%
D29*
%TO.C,J2*%
X50912400Y-50800000D03*
D30*
X48412399Y-50799999D03*
X45912399Y-50799999D03*
X43412399Y-50799999D03*
X40912399Y-50799999D03*
X38412399Y-50799999D03*
X35912399Y-50799999D03*
X33412399Y-50799999D03*
X30912399Y-50799999D03*
X28412399Y-50799999D03*
X25912399Y-50799999D03*
X23412399Y-50799999D03*
%TD*%
D31*
%TO.C,TR1*%
X143932500Y-109830500D03*
X148932500Y-109830500D03*
D32*
X128485500Y-132690500D03*
X149186500Y-132563500D03*
X125437500Y-106909500D03*
X131787500Y-106909500D03*
X141820500Y-106909500D03*
X148297500Y-106909500D03*
%TD*%
D12*
%TO.C,C40*%
X143586200Y-32893000D03*
X143586200Y-27893000D03*
%TD*%
%TO.C,C12*%
X115874800Y-19191600D03*
X115874800Y-24191600D03*
%TD*%
%TO.C,R27*%
X138480800Y-75412600D03*
D13*
X148640799Y-75412599D03*
%TD*%
D12*
%TO.C,R37*%
X136550400Y-145694400D03*
D13*
X146710399Y-145694399D03*
%TD*%
D18*
%TO.C,C31*%
X133160887Y-71043799D03*
D12*
X135660888Y-71043800D03*
%TD*%
%TO.C,C32*%
X117388000Y-40894000D03*
X122388000Y-40894000D03*
%TD*%
D18*
%TO.C,C21*%
X33756599Y-29971999D03*
D12*
X33756600Y-27472000D03*
%TD*%
D14*
%TO.C,C4*%
X95757999Y-31932999D03*
D15*
X95758000Y-36933000D03*
%TD*%
D12*
%TO.C,C23*%
X152628600Y-87147400D03*
X157628600Y-87147400D03*
%TD*%
D24*
%TO.C,Q5*%
X70239999Y-133859999D03*
D25*
X70240000Y-136400000D03*
X70240000Y-138940000D03*
%TD*%
D12*
%TO.C,C38*%
X150368000Y-30988000D03*
X150368000Y-25988000D03*
%TD*%
%TO.C,R52*%
X58674000Y-52832000D03*
D13*
X58673999Y-42671999D03*
%TD*%
D12*
%TO.C,R19*%
X98602800Y-145034000D03*
D13*
X98602799Y-155193999D03*
%TD*%
D10*
%TO.C,D14*%
X167893999Y-89204799D03*
D11*
X167893999Y-99364799D03*
%TD*%
D12*
%TO.C,R47*%
X99822000Y-41656000D03*
D13*
X99821999Y-51815999D03*
%TD*%
D12*
%TO.C,R43*%
X141224000Y-47752000D03*
D13*
X141223999Y-37591999D03*
%TD*%
D16*
%TO.C,J12*%
X41909999Y-90306999D03*
D17*
X41909999Y-92846999D03*
X41909999Y-95386999D03*
X41909999Y-97926999D03*
%TD*%
D22*
%TO.C,H4*%
X19812000Y-154940000D03*
D23*
X19812000Y-154940000D03*
%TD*%
D10*
%TO.C,D16*%
X110794799Y-99466399D03*
D11*
X120954799Y-99466399D03*
%TD*%
D12*
%TO.C,R9*%
X114706400Y-44069000D03*
D13*
X114706399Y-54228999D03*
%TD*%
D12*
%TO.C,R5*%
X99999800Y-22682200D03*
D13*
X110159799Y-22682199D03*
%TD*%
D12*
%TO.C,R36*%
X130530600Y-140081000D03*
D13*
X120370599Y-140080999D03*
%TD*%
D33*
%TO.C,C35*%
X119911999Y-26161999D03*
D34*
X121412000Y-26162000D03*
%TD*%
D22*
%TO.C,H1*%
X170688000Y-20320000D03*
D23*
X170688000Y-20320000D03*
%TD*%
D12*
%TO.C,R16*%
X129489200Y-15671800D03*
D13*
X119329199Y-15671799D03*
%TD*%
D18*
%TO.C,C2*%
X94233999Y-18541999D03*
D12*
X94234000Y-21042000D03*
%TD*%
D35*
%TO.C,J15*%
X79248000Y-90200000D03*
%TD*%
D36*
%TO.C,C10*%
X158122000Y-53340000D03*
X143122000Y-53340000D03*
%TD*%
D12*
%TO.C,R28*%
X149606000Y-94107000D03*
D13*
X159765999Y-94106999D03*
%TD*%
D24*
%TO.C,D2*%
X75432999Y-24312999D03*
D37*
X83052999Y-24312999D03*
%TD*%
D12*
%TO.C,R57*%
X74920000Y-148200000D03*
D13*
X85079999Y-148199999D03*
%TD*%
D12*
%TO.C,R15*%
X157734000Y-37846000D03*
D13*
X157733999Y-48005999D03*
%TD*%
D12*
%TO.C,R33*%
X105664000Y-155194000D03*
D13*
X105663999Y-145033999D03*
%TD*%
D18*
%TO.C,U1*%
X139085799Y-83728399D03*
D13*
X139085799Y-86268399D03*
X139085799Y-88808399D03*
X139085799Y-91348399D03*
X146705799Y-91348399D03*
X146705799Y-88808399D03*
X146705799Y-86268399D03*
X146705799Y-83728399D03*
%TD*%
D12*
%TO.C,R1*%
X78486000Y-116586000D03*
D13*
X88645999Y-116585999D03*
%TD*%
D12*
%TO.C,C11*%
X53873400Y-101092000D03*
X48873400Y-101092000D03*
%TD*%
D38*
%TO.C,R18*%
X65240000Y-155200000D03*
D39*
X85559999Y-155199999D03*
%TD*%
D12*
%TO.C,R29*%
X149834600Y-90728800D03*
D13*
X159994599Y-90728799D03*
%TD*%
D12*
%TO.C,R20*%
X119735600Y-112268000D03*
D13*
X109575599Y-112267999D03*
%TD*%
D26*
%TO.C,J7*%
X94150000Y-137532500D03*
D27*
X96649999Y-137532499D03*
%TD*%
D35*
%TO.C,J16*%
X79248000Y-93800000D03*
%TD*%
D40*
%TO.C,D1*%
X59694999Y-18008599D03*
D41*
X57155000Y-18008600D03*
%TD*%
D12*
%TO.C,R3*%
X43688000Y-18034000D03*
D13*
X53847999Y-18033999D03*
%TD*%
D18*
%TO.C,C3*%
X58953399Y-113512522D03*
D12*
X58953400Y-116012523D03*
%TD*%
D42*
%TO.C,J10*%
X110805600Y-34366200D03*
D27*
X108305599Y-34366199D03*
%TD*%
D12*
%TO.C,C41*%
X147066000Y-27965400D03*
X147066000Y-32965400D03*
%TD*%
D16*
%TO.C,J11*%
X114832999Y-76727999D03*
D17*
X114832999Y-79267999D03*
X114832999Y-81807999D03*
X114832999Y-84347999D03*
X114832999Y-86887999D03*
X114832999Y-89427999D03*
X114832999Y-91967999D03*
%TD*%
D12*
%TO.C,C22*%
X128437000Y-88798400D03*
X133437000Y-88798400D03*
%TD*%
%TO.C,R54*%
X155956000Y-16256000D03*
D13*
X166115999Y-16255999D03*
%TD*%
D10*
%TO.C,D17*%
X168046399Y-84937599D03*
D11*
X168046399Y-74777599D03*
%TD*%
D12*
%TO.C,R41*%
X150114000Y-37592000D03*
D13*
X150113999Y-47751999D03*
%TD*%
D10*
%TO.C,D3*%
X135229599Y-97713799D03*
D11*
X125069599Y-97713799D03*
%TD*%
D21*
%TO.C,R51*%
X136461000Y-20129000D03*
X136461000Y-18479000D03*
%TD*%
D12*
%TO.C,R4*%
X90728800Y-99466400D03*
D13*
X100888799Y-99466399D03*
%TD*%
D24*
%TO.C,Q6*%
X70239999Y-145659999D03*
D25*
X70240000Y-148200000D03*
X70240000Y-150740000D03*
%TD*%
D22*
%TO.C,H1*%
X19608800Y-21056600D03*
D23*
X19608800Y-21056600D03*
%TD*%
D18*
%TO.C,U4*%
X113761599Y-125389799D03*
D13*
X116301599Y-125389799D03*
X116301599Y-117769799D03*
X113761599Y-117769799D03*
%TD*%
D12*
%TO.C,C34*%
X116789200Y-36322000D03*
X116789200Y-31322000D03*
%TD*%
D43*
%TO.C,U5*%
X42163999Y-25024199D03*
D44*
X44703999Y-25024199D03*
X47243999Y-25024199D03*
%TD*%
D25*
%TO.C,8.192MHz1*%
X138125200Y-27572800D03*
X138125200Y-32472800D03*
%TD*%
D12*
%TO.C,R32*%
X125044200Y-92506800D03*
D13*
X135204199Y-92506799D03*
%TD*%
D45*
%TO.C,U8*%
X124695399Y-28896599D03*
X124695399Y-29546599D03*
X124695399Y-30196599D03*
X124695399Y-30846599D03*
X124695399Y-31496599D03*
X124695399Y-32146599D03*
X124695399Y-32796599D03*
X124695399Y-33446599D03*
X124695399Y-34096599D03*
X124695399Y-34746599D03*
X124695399Y-35396599D03*
X124695399Y-36046599D03*
X124695399Y-36696599D03*
X124695399Y-37346599D03*
X131895399Y-37346599D03*
X131895399Y-36696599D03*
X131895399Y-36046599D03*
X131895399Y-35396599D03*
X131895399Y-34746599D03*
X131895399Y-34096599D03*
X131895399Y-33446599D03*
X131895399Y-32796599D03*
X131895399Y-32146599D03*
X131895399Y-31496599D03*
X131895399Y-30846599D03*
X131895399Y-30196599D03*
X131895399Y-29546599D03*
X131895399Y-28896599D03*
%TD*%
D12*
%TO.C,R14*%
X38989000Y-37312600D03*
D13*
X49148999Y-37312599D03*
%TD*%
D12*
%TO.C,C33*%
X125690000Y-18796000D03*
X120690000Y-18796000D03*
%TD*%
%TO.C,C24*%
X127979800Y-81610200D03*
X132979800Y-81610200D03*
%TD*%
%TO.C,R10*%
X107264200Y-44221400D03*
D13*
X107264199Y-54381399D03*
%TD*%
D12*
%TO.C,C17*%
X150723600Y-150886800D03*
X150723600Y-145886800D03*
%TD*%
D10*
%TO.C,D15*%
X110947199Y-103911399D03*
D11*
X121107199Y-103911399D03*
%TD*%
D12*
%TO.C,C29*%
X112714400Y-57658000D03*
X117714400Y-57658000D03*
%TD*%
%TO.C,C25*%
X163195000Y-86450800D03*
X163195000Y-91450800D03*
%TD*%
%TO.C,R25*%
X149682200Y-98590100D03*
D13*
X159842199Y-98590099D03*
%TD*%
D46*
%TO.C,J9*%
X73700000Y-48468000D03*
D30*
X76199999Y-48467999D03*
X78699999Y-48467999D03*
%TD*%
D12*
%TO.C,R55*%
X152654000Y-16256000D03*
D13*
X142493999Y-16255999D03*
%TD*%
D47*
%TO.C,R30*%
X142494000Y-67665600D03*
D48*
X167893999Y-67665599D03*
%TD*%
D12*
%TO.C,R6*%
X99872800Y-25958800D03*
D13*
X110032799Y-25958799D03*
%TD*%
D18*
%TO.C,C30*%
X112597348Y-143399999D03*
D12*
X117597349Y-143400000D03*
%TD*%
D18*
%TO.C,U3*%
X99323999Y-114040999D03*
D13*
X99323999Y-116580999D03*
X106943999Y-116580999D03*
X106943999Y-114040999D03*
%TD*%
D12*
%TO.C,R26*%
X159715200Y-101800000D03*
D13*
X149555199Y-101799999D03*
%TD*%
D43*
%TO.C,U7*%
X100101399Y-19182199D03*
D44*
X102641399Y-19182199D03*
X105181399Y-19182199D03*
%TD*%
D18*
%TO.C,C19*%
X33680399Y-21400800D03*
D12*
X33680400Y-23900801D03*
%TD*%
D43*
%TO.C,U2*%
X76707999Y-32186999D03*
D44*
X79247999Y-32186999D03*
X81787999Y-32186999D03*
%TD*%
D24*
%TO.C,D6*%
X103377999Y-30657999D03*
D37*
X103377999Y-38277999D03*
%TD*%
D16*
%TO.C,J4*%
X31754999Y-152140999D03*
D17*
X29214999Y-152140999D03*
X31754999Y-149600999D03*
X29214999Y-149600999D03*
X31754999Y-147060999D03*
X29214999Y-147060999D03*
X31754999Y-144520999D03*
X29214999Y-144520999D03*
X31754999Y-141980999D03*
X29214999Y-141980999D03*
X31754999Y-139440999D03*
X29214999Y-139440999D03*
X31754999Y-136900999D03*
X29214999Y-136900999D03*
X31754999Y-134360999D03*
X29214999Y-134360999D03*
X31754999Y-131820999D03*
X29214999Y-131820999D03*
X31754999Y-129280999D03*
X29214999Y-129280999D03*
%TD*%
D21*
%TO.C,R48*%
X134429000Y-20129000D03*
X134429000Y-18479000D03*
%TD*%
D12*
%TO.C,R46*%
X93726000Y-41910000D03*
D13*
X93725999Y-52069999D03*
%TD*%
D21*
%TO.C,R49*%
X132334000Y-20129000D03*
X132334000Y-18479000D03*
%TD*%
D12*
%TO.C,R38*%
X136321800Y-150520400D03*
D13*
X146481799Y-150520399D03*
%TD*%
D18*
%TO.C,C1*%
X111505999Y-17017999D03*
D12*
X111506000Y-19518000D03*
%TD*%
D18*
%TO.C,C6*%
X51130199Y-94411876D03*
D12*
X51130200Y-91911877D03*
%TD*%
D35*
%TO.C,J14*%
X154178000Y-21082000D03*
%TD*%
D12*
%TO.C,R7*%
X118237000Y-44018200D03*
D13*
X118236999Y-54178199D03*
%TD*%
D14*
%TO.C,D11*%
X144485299Y-58666099D03*
D15*
X149485300Y-58666100D03*
X154485300Y-58666100D03*
X159485300Y-58666100D03*
%TD*%
D12*
%TO.C,R8*%
X110693200Y-54356000D03*
D13*
X110693199Y-44195999D03*
%TD*%
D12*
%TO.C,C14*%
X88138000Y-31933000D03*
X88138000Y-36933000D03*
%TD*%
D24*
%TO.C,D4*%
X82808999Y-19811999D03*
D37*
X75188999Y-19811999D03*
%TD*%
D12*
%TO.C,C18*%
X128473200Y-85115400D03*
X133473200Y-85115400D03*
%TD*%
D16*
%TO.C,J3*%
X83007199Y-68376799D03*
D17*
X83007199Y-70916799D03*
X83007199Y-73456799D03*
X83007199Y-75996799D03*
X83007199Y-78536799D03*
X83007199Y-81076799D03*
X83007199Y-83616799D03*
X83007199Y-86156799D03*
%TD*%
D18*
%TO.C,D18*%
X115392199Y-63093599D03*
D13*
X123012199Y-63093599D03*
%TD*%
D10*
%TO.C,D5*%
X95503999Y-124459999D03*
D11*
X105663999Y-124459999D03*
%TD*%
D12*
%TO.C,R53*%
X38720000Y-148400000D03*
D13*
X48879999Y-148399999D03*
%TD*%
D12*
%TO.C,R35*%
X114935000Y-72821800D03*
D13*
X125094999Y-72821799D03*
%TD*%
D12*
%TO.C,C13*%
X29591000Y-67143000D03*
X29591000Y-62143000D03*
%TD*%
D49*
%TO.C,C9*%
X132689599Y-61839066D03*
D47*
X132689600Y-54339067D03*
%TD*%
D12*
%TO.C,R2*%
X43688000Y-43688000D03*
D13*
X53847999Y-43687999D03*
%TD*%
D12*
%TO.C,R13*%
X39243000Y-32435800D03*
D13*
X49402999Y-32435799D03*
%TD*%
D12*
%TO.C,C7*%
X95250000Y-152908000D03*
X95250000Y-147908000D03*
%TD*%
%TO.C,R40*%
X153924000Y-37592000D03*
D13*
X153923999Y-47751999D03*
%TD*%
D12*
%TO.C,C16*%
X127548000Y-77597000D03*
X132548000Y-77597000D03*
%TD*%
%TO.C,R21*%
X119786400Y-108712000D03*
D13*
X109626399Y-108711999D03*
%TD*%
D14*
%TO.C,BZ1*%
X93217999Y-104647999D03*
D15*
X93218000Y-112248000D03*
%TD*%
D12*
%TO.C,R22*%
X151561800Y-77774800D03*
D13*
X161721799Y-77774799D03*
%TD*%
D12*
%TO.C,R44*%
X154178000Y-35052000D03*
D13*
X154177999Y-24891999D03*
%TD*%
D12*
%TO.C,C42*%
X103632000Y-51268000D03*
X103632000Y-46268000D03*
%TD*%
D16*
%TO.C,J1*%
X90728799Y-79349599D03*
D17*
X90728799Y-81889599D03*
X90728799Y-84429599D03*
X90728799Y-86969599D03*
%TD*%
D24*
%TO.C,Q1*%
X52639999Y-133859999D03*
D25*
X52640000Y-136400000D03*
X52640000Y-138940000D03*
%TD*%
D12*
%TO.C,C36*%
X120269000Y-36322000D03*
X120269000Y-31322000D03*
%TD*%
%TO.C,R42*%
X146050000Y-37592000D03*
D13*
X146049999Y-47751999D03*
%TD*%
D49*
%TO.C,D19*%
X135635999Y-139445999D03*
D48*
X150875999Y-139445999D03*
%TD*%
D18*
%TO.C,C28*%
X112997348Y-132587999D03*
D12*
X117997349Y-132588000D03*
%TD*%
%TO.C,R39*%
X73914000Y-16510000D03*
D13*
X84073999Y-16509999D03*
%TD*%
D16*
%TO.C,J5*%
X74040999Y-58191399D03*
D17*
X74040999Y-60731399D03*
X74040999Y-63271399D03*
X74040999Y-65811399D03*
X74040999Y-68351399D03*
X74040999Y-70891399D03*
X74040999Y-73431399D03*
X74040999Y-75971399D03*
X74040999Y-78511399D03*
X74040999Y-81051399D03*
X74040999Y-83591399D03*
X74040999Y-86131399D03*
X74040999Y-88671399D03*
X74040999Y-91211399D03*
X74040999Y-93751399D03*
X74040999Y-96291399D03*
X74040999Y-98831399D03*
X74040999Y-101371399D03*
X74040999Y-103911399D03*
X74040999Y-106451399D03*
%TD*%
D24*
%TO.C,Q4*%
X52599999Y-145799999D03*
D25*
X52600000Y-148340000D03*
X52600000Y-150880000D03*
%TD*%
D36*
%TO.C,C43*%
X170942000Y-29838000D03*
X170942000Y-44838000D03*
%TD*%
M02*
