M48
; DRILL file {KiCad (6.99.0-1031-g46d719ed42)} date Tuesday, September 13, 2022 at 01:50:55 PM
; FORMAT={-:-/ absolute / inch / decimal}
; #@! TF.CreationDate,2022-09-13T13:50:55+01:00
; #@! TF.GenerationSoftware,Kicad,Pcbnew,(6.99.0-1031-g46d719ed42)
; #@! TF.FileFunction,Plated,1,2,PTH
FMAT,2
INCH
; #@! TA.AperFunction,Plated,PTH,ComponentDrill
T1C0.0039
; #@! TA.AperFunction,Plated,PTH,ViaDrill
T2C0.0157
; #@! TA.AperFunction,Plated,PTH,ComponentDrill
T3C0.0236
; #@! TA.AperFunction,Plated,PTH,ComponentDrill
T4C0.0295
; #@! TA.AperFunction,Plated,PTH,ComponentDrill
T5C0.0315
; #@! TA.AperFunction,Plated,PTH,ComponentDrill
T6C0.0354
; #@! TA.AperFunction,Plated,PTH,ComponentDrill
T7C0.0374
; #@! TA.AperFunction,Plated,PTH,ComponentDrill
T8C0.0394
; #@! TA.AperFunction,Plated,PTH,ComponentDrill
T9C0.0433
; #@! TA.AperFunction,Plated,PTH,ComponentDrill
T10C0.0472
; #@! TA.AperFunction,Plated,PTH,ComponentDrill
T11C0.0512
; #@! TA.AperFunction,Plated,PTH,ComponentDrill
T12C0.0551
; #@! TA.AperFunction,Plated,PTH,ComponentDrill
T13C0.0591
; #@! TA.AperFunction,Plated,PTH,ComponentDrill
T14C0.1260
%
G90
G05
T1
X5.473Y-4.2893
X5.6699Y-4.2893
X5.8667Y-4.2893
T2
X1.59Y-2.7
X1.59Y-3.02
X2.129Y-4.374
X2.172Y-4.173
X2.55Y-3.889
X2.553Y-3.791
X2.73Y-2.06
X2.822Y-4.442
X2.935Y-4.503
X2.99Y-5.15
X2.99Y-5.28
X3.41Y-2.46
X3.41Y-2.519
X3.64Y-2.23
X3.71Y-2.46
X3.71Y-2.52
X4.741Y-3.137
X4.8196Y-1.2144
X4.84Y-1.292
X4.913Y-3.137
X4.9767Y-1.3047
X4.993Y-1.208
X5.048Y-1.37
X5.1677Y-0.6485
X5.1677Y-0.72
X5.212Y-1.003
X5.2475Y-0.84
X5.262Y-1.1947
X5.295Y-1.162
X5.34Y-0.84
X5.435Y-0.915
X5.717Y-2.754
X5.926Y-3.799
X5.975Y-2.657
X6.146Y-3.799
T3
X3.12Y-3.59
X3.12Y-3.81
X4.7209Y-1.03
X4.78Y-1.03
X6.07Y-0.83
T4
X2.9602Y-0.78
X2.9698Y-0.9572
X3.2602Y-0.78
X3.2698Y-0.9572
X4.07Y-1.207
X4.07Y-1.507
T5
X0.8086Y-2.535
X0.907Y-2.535
X1.165Y-2.4466
X1.165Y-2.6434
X1.326Y-0.8426
X1.326Y-0.941
X1.329Y-1.0816
X1.329Y-1.18
X1.535Y-1.469
X1.545Y-1.277
X1.72Y-0.71
X1.72Y-1.72
X1.9241Y-3.98
X1.935Y-1.469
X1.94Y-5.29
X1.945Y-1.277
X2.0104Y-4.9898
X2.0104Y-5.0898
X2.013Y-3.6186
X2.013Y-3.717
X2.024Y-4.4676
X2.024Y-4.6644
X2.12Y-0.71
X2.12Y-1.72
X2.121Y-3.98
X2.31Y-1.68
X2.31Y-2.08
X2.3104Y-4.9898
X2.3104Y-5.0898
X2.321Y-4.469
X2.321Y-4.5674
X2.34Y-5.29
X2.37Y-1.2572
X2.37Y-1.4541
X2.56Y-4.99
X2.56Y-5.44
X2.6Y-1.753
X2.6Y-2.153
X2.66Y-4.99
X2.66Y-5.44
X2.76Y-4.99
X2.76Y-5.44
X2.91Y-0.65
X2.99Y-4.9942
X2.99Y-5.43
X3.09Y-4.59
X3.09Y-4.9942
X3.09Y-5.43
X3.151Y-4.3982
X3.19Y-4.9942
X3.19Y-5.43
X3.251Y-4.3982
X3.31Y-0.65
X3.351Y-4.3982
X3.47Y-1.2572
X3.47Y-1.4541
X3.49Y-4.59
X3.572Y-3.916
X3.69Y-1.65
X3.69Y-2.05
X3.71Y-0.73
X3.71Y-0.8284
X3.75Y-5.8231
X3.75Y-6.02
X3.8Y-4.74
X3.882Y-5.71
X3.882Y-6.11
X3.9104Y-4.4898
X3.9104Y-4.5898
X3.93Y-1.64
X3.93Y-2.04
X3.932Y-1.022
X3.937Y-0.893
X3.972Y-3.916
X4.02Y-5.71
X4.02Y-6.11
X4.08Y-1.8216
X4.08Y-2.0184
X4.16Y-5.71
X4.16Y-6.11
X4.2Y-4.74
X4.2104Y-4.4898
X4.2104Y-4.5898
X4.223Y-1.741
X4.223Y-2.141
X4.314Y-4.42
X4.316Y-4.28
X4.332Y-1.022
X4.337Y-0.893
X4.358Y-1.74
X4.358Y-2.14
X4.39Y-0.67
X4.39Y-0.7684
X4.4154Y-5.64
X4.416Y-5.22
X4.4376Y-2.27
X4.4788Y-4.6366
X4.4788Y-4.9366
X4.516Y-1.735
X4.516Y-2.135
X4.525Y-2.742
X4.525Y-2.867
X4.543Y-2.484
X4.553Y-2.62
X4.562Y-0.7556
X4.562Y-0.9524
X4.5788Y-4.6366
X4.5788Y-4.9366
X4.598Y-1.2331
X4.598Y-1.43
X4.6123Y-5.64
X4.6128Y-5.22
X4.6216Y-1.61
X4.6344Y-2.27
X4.655Y-1.733
X4.655Y-2.133
X4.698Y-0.617
X4.714Y-4.42
X4.716Y-4.28
X4.735Y-1.2331
X4.735Y-1.43
X4.739Y-5.515
X4.7516Y-0.74
X4.7516Y-0.87
X4.8184Y-1.61
X4.841Y-5.7542
X4.843Y-2.484
X4.853Y-2.62
X4.923Y-3.642
X4.925Y-2.742
X4.925Y-2.867
X4.941Y-5.7542
X4.9484Y-0.74
X4.9484Y-0.87
X4.9751Y-4.034
X5.0216Y-3.055
X5.03Y-1.64
X5.0386Y-3.213
X5.041Y-5.7542
X5.0566Y-3.496
X5.058Y-3.351
X5.098Y-0.617
X5.12Y-1.78
X5.139Y-5.515
X5.172Y-4.034
X5.2184Y-3.055
X5.2354Y-3.213
X5.2426Y-2.797
X5.2534Y-3.496
X5.2549Y-3.351
X5.3169Y-1.78
X5.323Y-3.642
X5.341Y-2.797
X5.367Y-5.926
X5.376Y-5.736
X5.43Y-1.64
X5.438Y-1.0855
X5.438Y-1.2785
X5.4434Y-3.114
X5.452Y-2.969
X5.4758Y-3.2964
X5.4758Y-3.3964
X5.4758Y-3.4964
X5.4758Y-3.5964
X5.56Y-1.48
X5.56Y-1.88
X5.6056Y-3.87
X5.61Y-0.64
X5.653Y-1.0981
X5.653Y-1.295
X5.704Y-3.87
X5.75Y-1.48
X5.75Y-1.88
X5.767Y-5.926
X5.7758Y-3.2964
X5.7758Y-3.3964
X5.7758Y-3.4964
X5.7758Y-3.5964
X5.776Y-5.736
X5.79Y-1.101
X5.79Y-1.2979
X5.8434Y-3.114
X5.852Y-2.969
X5.888Y-4.0295
X5.89Y-3.705
X5.893Y-3.8815
X5.899Y-3.572
X5.91Y-1.48
X5.91Y-1.88
X5.92Y-1.0231
X5.92Y-1.22
X5.934Y-5.7436
X5.934Y-5.9404
X5.955Y-3.203
X5.967Y-3.062
X6.009Y-3.431
X6.01Y-0.64
X6.06Y-1.48
X6.06Y-1.88
X6.07Y-0.98
X6.07Y-1.38
X6.14Y-0.64
X6.2059Y-3.431
X6.21Y-1.49
X6.21Y-1.89
X6.288Y-4.0295
X6.29Y-3.705
X6.293Y-3.8815
X6.299Y-3.572
X6.355Y-3.203
X6.367Y-3.062
X6.37Y-1.49
X6.37Y-1.89
X6.425Y-3.4036
X6.425Y-3.6004
X6.444Y-2.1166
X6.444Y-2.3134
X6.54Y-0.64
T6
X2.2502Y-0.709
X2.3502Y-0.709
T7
X0.9217Y-2.0
X1.0202Y-2.0
X1.1186Y-2.0
X1.217Y-2.0
X1.3154Y-2.0
X1.4139Y-2.0
X1.5123Y-2.0
X1.6107Y-2.0
X1.7091Y-2.0
X1.8076Y-2.0
X1.906Y-2.0
X2.0044Y-2.0
X2.9016Y-1.9082
X3.0Y-1.9082
X3.0984Y-1.9082
T8
X1.1502Y-5.0898
X1.1502Y-5.1898
X1.1502Y-5.2898
X1.1502Y-5.3898
X1.1502Y-5.4898
X1.1502Y-5.5898
X1.1502Y-5.6898
X1.1502Y-5.7898
X1.1502Y-5.8898
X1.1502Y-5.9898
X1.2502Y-5.0898
X1.2502Y-5.1898
X1.2502Y-5.2898
X1.2502Y-5.3898
X1.2502Y-5.4898
X1.2502Y-5.5898
X1.2502Y-5.6898
X1.2502Y-5.7898
X1.2502Y-5.8898
X1.2502Y-5.9898
X1.65Y-3.5554
X1.65Y-3.6554
X1.65Y-3.7554
X1.65Y-3.8554
X2.315Y-2.291
X2.315Y-2.391
X2.315Y-2.491
X2.315Y-2.591
X2.315Y-2.691
X2.315Y-2.791
X2.315Y-2.891
X2.315Y-2.991
X2.315Y-3.091
X2.315Y-3.191
X2.315Y-3.291
X2.315Y-3.391
X2.315Y-3.491
X2.315Y-3.591
X2.315Y-3.691
X2.315Y-3.791
X2.315Y-3.891
X2.315Y-3.991
X2.315Y-4.091
X2.315Y-4.191
X2.6Y-0.89
X2.67Y-1.2572
X2.67Y-1.4541
X2.6984Y-0.89
X2.915Y-2.291
X2.915Y-2.391
X2.915Y-2.491
X2.915Y-2.591
X2.915Y-2.691
X2.915Y-2.791
X2.915Y-2.891
X2.915Y-2.991
X2.915Y-3.091
X2.915Y-3.191
X2.915Y-3.291
X2.915Y-3.391
X2.915Y-3.491
X2.915Y-3.591
X2.915Y-3.691
X2.915Y-3.791
X2.915Y-3.891
X2.915Y-3.991
X2.915Y-4.091
X2.915Y-4.191
X3.268Y-2.692
X3.268Y-2.792
X3.268Y-2.892
X3.268Y-2.992
X3.268Y-3.092
X3.268Y-3.192
X3.268Y-3.292
X3.268Y-3.392
X3.572Y-3.124
X3.572Y-3.224
X3.572Y-3.324
X3.572Y-3.424
X3.67Y-4.12
X3.67Y-4.4192
X3.77Y-1.2572
X3.77Y-1.4541
X3.7908Y-5.4297
X3.8892Y-5.4297
X4.264Y-1.353
X4.3624Y-1.353
X4.521Y-3.0208
X4.521Y-3.1208
X4.521Y-3.2208
X4.521Y-3.3208
X4.521Y-3.4208
X4.521Y-3.5208
X4.521Y-3.6208
X5.6884Y-2.3097
X5.8852Y-2.3097
X6.0821Y-2.3097
X6.2789Y-2.3097
X6.37Y-1.17
X6.4684Y-1.17
T9
X1.66Y-0.9852
X1.76Y-0.9852
X1.86Y-0.9852
X3.02Y-1.2672
X3.12Y-1.2672
X3.22Y-1.2672
X3.76Y-4.9
X3.76Y-5.05
X3.941Y-0.7552
X4.041Y-0.7552
X4.141Y-0.7552
X4.16Y-4.9
X4.16Y-5.05
X4.362Y-3.916
X4.368Y-4.091
X4.762Y-3.916
X4.768Y-4.091
X4.924Y-3.847
X5.324Y-3.847
X5.34Y-5.49
X5.44Y-5.49
X5.54Y-5.49
X5.6347Y-2.1
X6.2253Y-2.1
X6.61Y-3.512
X6.61Y-3.912
X6.616Y-2.944
X6.616Y-3.344
X6.73Y-1.1747
X6.73Y-1.7653
T10
X5.224Y-2.1393
X5.224Y-2.4346
X5.61Y-2.664
X6.61Y-2.664
T11
X0.9281Y-1.4355
X0.9281Y-1.6323
X1.125Y-1.5339
T12
X2.57Y-5.94
X3.37Y-5.94
T13
X4.9417Y-4.2893
X5.0917Y-5.1143
X5.1917Y-4.3143
X5.5917Y-4.3017
X5.8417Y-4.3143
X5.8417Y-5.1017
X6.2Y-5.26
X6.2Y-5.4756
X6.2Y-5.6911
T14
X0.772Y-0.829
X0.78Y-6.1
X6.664Y-6.12
X6.72Y-0.8
T0
M30
