<?xml version="1.0" encoding="utf-8"?>
<!-- Generator: Adobe Illustrator 19.0.0, SVG Export Plug-In . SVG Version: 6.00 Build 0)  -->
<svg version="1.1" id="Capa_1" xmlns="http://www.w3.org/2000/svg" xmlns:xlink="http://www.w3.org/1999/xlink" x="0px" y="0px"
	 viewBox="0 0 1920 961.2" style="enable-background:new 0 0 1920 961.2;" xml:space="preserve">
<style type="text/css">
	.st0{fill:#33AADF;}
	.st1{fill:#FFFFFF;}
</style>
<path id="XMLID_130_" class="st0" d="M42.7,719.7H157v20.5H65.3v68h89v20.5h-89V902H157v20.5H42.7V719.7z"/>
<path id="XMLID_128_" class="st0" d="M256.3,719.7h24.5l114.1,167.2h0.5V719.7h22.7v202.8h-24.5L279.5,755.3h-0.5v167.2h-22.7V719.7
	z"/>
<path id="XMLID_93_" class="st1" d="M574.5,719.7h23.2L674,922.5h-25.6l-20.2-57.2H544l-20.2,57.2h-25.6L574.5,719.7z M586.4,748.2
	h-0.5l-34.3,96.5h69L586.4,748.2z"/>
<path id="XMLID_79_" class="st1" d="M908.6,785.5c-4.9-17.1-13.1-29.5-24.8-37.4c-11.7-7.8-25.8-11.7-42.3-11.7
	c-13.5,0-25.3,2.4-35.3,7.1c-10.1,4.8-18.3,11.2-24.7,19.3c-6.4,8.1-11.1,17.2-14.2,27.2c-3.1,10.1-4.6,20.4-4.6,31
	c0,10.8,1.4,21.1,4.2,31c2.8,9.9,7.3,18.9,13.5,27.1c6.2,8.2,14.4,14.7,24.7,19.4c10.2,4.8,22.4,7.1,36.4,7.1
	c18.5,0,33.4-4.9,44.8-14.7c11.3-9.8,19.2-23.6,23.7-41.4l22.9,2.7c-2.3,9.5-5.7,18.6-10.1,27.1c-4.4,8.5-10.3,16.4-17.7,23.5
	c-7.4,7.1-16.5,12.8-27.5,17c-11,4.2-23.8,6.3-38.6,6.3c-14.6,0-28-2.4-40.3-7.3c-12.3-4.9-23-11.9-32.1-21
	c-9.1-9.2-16-20.3-20.9-33.3c-4.9-13-7.3-27.5-7.3-43.6c0-14.9,2.6-28.9,7.7-41.8c5.1-12.9,12.4-24.2,21.8-33.7
	c9.4-9.5,20.4-16.9,33-22c12.6-5.1,26.1-7.7,40.5-7.7c15.3,0,28.5,2.1,39.5,6.3c11.1,4.2,20,9.7,26.8,16.3
	c6.8,6.7,12.1,13.9,15.8,21.7c3.7,7.8,6.3,15.7,8,23.6L908.6,785.5z"/>
<path id="XMLID_77_" class="st1" d="M1187.2,785.5c-4.9-17.1-13.1-29.5-24.8-37.4c-11.7-7.8-25.8-11.7-42.3-11.7
	c-13.5,0-25.3,2.4-35.3,7.1c-10.1,4.8-18.3,11.2-24.7,19.3c-6.4,8.1-11.1,17.2-14.2,27.2c-3.1,10.1-4.6,20.4-4.6,31
	c0,10.8,1.4,21.1,4.2,31c2.8,9.9,7.3,18.9,13.5,27.1c6.2,8.2,14.4,14.7,24.7,19.4c10.2,4.8,22.4,7.1,36.4,7.1
	c18.5,0,33.4-4.9,44.8-14.7c11.3-9.8,19.2-23.6,23.7-41.4l22.9,2.7c-2.3,9.5-5.7,18.6-10.1,27.1c-4.4,8.5-10.3,16.4-17.7,23.5
	c-7.4,7.1-16.5,12.8-27.5,17s-23.8,6.3-38.6,6.3c-14.6,0-28-2.4-40.3-7.3c-12.3-4.9-23-11.9-32.1-21c-9.1-9.2-16-20.3-20.9-33.3
	c-4.9-13-7.3-27.5-7.3-43.6c0-14.9,2.6-28.9,7.7-41.8c5.1-12.9,12.4-24.2,21.8-33.7c9.4-9.5,20.4-16.9,33-22
	c12.6-5.1,26.1-7.7,40.5-7.7c15.3,0,28.5,2.1,39.5,6.3c11.1,4.2,20,9.7,26.8,16.3c6.8,6.7,12.1,13.9,15.8,21.7
	c3.7,7.8,6.3,15.7,8,23.6L1187.2,785.5z"/>
<path id="XMLID_75_" class="st1" d="M1301.6,719.7h114.3v20.5h-91.7v68h89v20.5h-89V902h91.7v20.5h-114.3V719.7z"/>
<path id="XMLID_73_" class="st1" d="M1618.7,772.5c-0.4-4.5-1.4-8.9-3.2-13.1c-1.8-4.2-4.5-8.1-8.2-11.6c-3.7-3.5-8.4-6.3-14.2-8.4
	c-5.8-2.1-12.5-3.1-20.2-3.1c-15.1,0-26.5,3.6-34.2,10.9c-7.7,7.3-11.6,16.2-11.6,26.8c0,7.7,3.2,14.4,9.7,20
	c6.5,5.6,18.3,10.1,35.6,13.5c26.8,5.2,45.8,11.9,57,20.1c11.2,8.2,16.9,20.7,16.9,37.6c0,7.9-1.4,15.5-4.3,22.8
	c-2.9,7.3-7.3,13.8-13.3,19.5c-6,5.8-13.8,10.3-23.2,13.6c-9.4,3.3-20.5,5-33.3,5c-22.7,0-40.3-5.3-52.9-15.8
	c-12.6-10.5-19.4-25.2-20.5-44.1h22.9c2,13.1,7.3,23,16,29.5c8.7,6.6,20.5,9.8,35.5,9.8c8.3,0,15.5-1.1,21.8-3.4
	c6.3-2.2,11.4-5.2,15.4-8.9c4-3.7,6.9-7.8,8.8-12.3c1.9-4.5,2.8-9.1,2.8-13.8c0-10.8-3.4-18.6-10.2-23.5c-6.8-4.9-19.5-9.3-38-13.2
	c-24.6-5.2-42.3-11.9-53.1-20c-10.8-8.1-16.2-20.3-16.2-36.7c0-8.3,1.6-16,4.9-23.1c3.2-7.1,7.9-13.3,13.9-18.6
	c6-5.3,13.3-9.4,21.7-12.3c8.4-2.9,17.7-4.3,27.8-4.3c12,0,22.3,1.5,30.7,4.4c8.4,3,15.3,7.1,20.6,12.4c5.3,5.3,9.3,11.3,12.1,17.9
	c2.8,6.7,4.7,13.9,5.8,21.8H1618.7z"/>
<path id="XMLID_71_" class="st1" d="M1852.6,772.5c-0.4-4.5-1.4-8.9-3.2-13.1c-1.8-4.2-4.5-8.1-8.2-11.6c-3.7-3.5-8.4-6.3-14.2-8.4
	c-5.8-2.1-12.5-3.1-20.2-3.1c-15.1,0-26.5,3.6-34.2,10.9c-7.7,7.3-11.6,16.2-11.6,26.8c0,7.7,3.2,14.4,9.7,20
	c6.5,5.6,18.3,10.1,35.6,13.5c26.8,5.2,45.8,11.9,57,20.1c11.2,8.2,16.9,20.7,16.9,37.6c0,7.9-1.4,15.5-4.3,22.8
	c-2.9,7.3-7.3,13.8-13.3,19.5c-6,5.8-13.8,10.3-23.2,13.6c-9.4,3.3-20.5,5-33.3,5c-22.7,0-40.3-5.3-52.9-15.8
	c-12.6-10.5-19.4-25.2-20.5-44.1h22.9c2,13.1,7.3,23,16,29.5c8.7,6.6,20.5,9.8,35.5,9.8c8.3,0,15.5-1.1,21.8-3.4
	c6.3-2.2,11.4-5.2,15.4-8.9c4-3.7,6.9-7.8,8.8-12.3c1.9-4.5,2.8-9.1,2.8-13.8c0-10.8-3.4-18.6-10.2-23.5c-6.8-4.9-19.5-9.3-38-13.2
	c-24.6-5.2-42.3-11.9-53.1-20c-10.8-8.1-16.2-20.3-16.2-36.7c0-8.3,1.6-16,4.9-23.1c3.2-7.1,7.9-13.3,13.9-18.6
	c6-5.3,13.3-9.4,21.7-12.3c8.4-2.9,17.7-4.3,27.8-4.3c12,0,22.3,1.5,30.7,4.4c8.4,3,15.3,7.1,20.6,12.4c5.3,5.3,9.3,11.3,12.1,17.9
	c2.8,6.7,4.7,13.9,5.8,21.8H1852.6z"/>
<g id="XMLID_35_">
	<g id="XMLID_41_">
		<path id="XMLID_70_" class="st1" d="M266.2,398.5c-36.9-20.3-63.2-12.5-72.9,4.3c-10.6,18.3-2.8,47.9,32.4,69.2
			c79.1,47.9,299.9,130,309.3,133.5c0.7,0.3,1.4,0.4,2.1,0.4c2.1,0,4.2-1.1,5.3-3.1c1.5-2.6,0.8-5.9-1.5-7.8
			C538.9,593.6,350,444.6,266.2,398.5z"/>
		<path id="XMLID_69_" class="st1" d="M962.4,36.9C962.4,36.9,962.4,36.9,962.4,36.9c-21.1,0-43,21.5-43.9,62.5
			c-2.1,92.4,36.6,324.8,38.3,334.7c0.5,2.9,3,5.1,6,5.1c0,0,0,0,0.1,0c3,0,5.5-2.2,6-5.2c0.4-2.4,35.4-240.5,33.6-336
			C1001.7,55.8,981.8,36.9,962.4,36.9z"/>
		<path id="XMLID_54_" class="st1" d="M636.8,323.6c-17.1-25.1-36.8-38.4-54.3-36.4c-10.4,1.2-18.7,7.7-22.7,18
			c-5.3,13.7-3.4,37.1,18.1,61.8c19.4,22.4,111.7,100.5,115.6,103.8c1.1,1,2.5,1.4,3.9,1.4c1.3,0,2.5-0.4,3.6-1.2
			c2.3-1.6,3.1-4.6,2.1-7.2C701.2,459.6,659.1,356.4,636.8,323.6z"/>
	</g>
	<g id="XMLID_38_">
		<path id="XMLID_40_" class="st1" d="M1656.5,398.5c36.9-20.3,63.2-12.5,72.9,4.3c10.6,18.3,2.8,47.9-32.4,69.2
			c-79.1,47.9-299.9,130-309.3,133.5c-0.7,0.3-1.4,0.4-2.1,0.4c-2.1,0-4.2-1.1-5.3-3.1c-1.5-2.6-0.8-5.9,1.5-7.8
			C1383.8,593.6,1572.8,444.6,1656.5,398.5z"/>
		<path id="XMLID_39_" class="st1" d="M1286,323.6c17.1-25.1,36.8-38.4,54.3-36.4c10.4,1.2,18.7,7.7,22.7,18
			c5.3,13.7,3.4,37.1-18.1,61.8c-19.4,22.4-111.7,100.5-115.6,103.8c-1.1,1-2.5,1.4-3.9,1.4c-1.3,0-2.5-0.4-3.6-1.2
			c-2.3-1.6-3.1-4.6-2.1-7.2C1221.5,459.6,1263.7,356.4,1286,323.6z"/>
	</g>
</g>
</svg>
